<svg xmlns="http://www.w3.org/2000/svg" xmlns:svg="http://www.w3.org/2000/svg" xmlns:xlink="http://www.w3.org/1999/xlink" id="svg1987" width="476.1" height="385.3" version="1.1"><metadata id="metadata1993"/><style id="style1792" type="text/css">.st0,.st1{stroke:#006de9}.st0,.st1,.st2{fill:#fff;stroke-linecap:round;stroke-linejoin:round;stroke-miterlimit:10}.st1{stroke-width:6}.st2{stroke:#326de6;stroke-width:2}.st3{opacity:.71;fill:#326ce6}.st4{opacity:.45;fill:#fff}.st5{fill:#fff;stroke:#006de9;stroke-width:2;stroke-linecap:round;stroke-linejoin:round;stroke-miterlimit:10}.st6{fill:#006de9}.st7{fill:#a0caea}.st8{fill:#fff}.st9{opacity:.13}.st10{fill:url(#SVGID_1_)}.st13{fill:#326de6}.st16,.st29{stroke-miterlimit:10}.st16{fill:#fff;stroke:#326de6;stroke-width:1.6;stroke-linecap:round;stroke-linejoin:round}.st29{fill:none;stroke:#006de9;stroke-width:.8}.st42{fill:#011f38}.st47,.st48,.st50,.st62{stroke-linecap:round;stroke-linejoin:round}.st47{fill:#06f7c9;stroke:#fff;stroke-width:.3;stroke-miterlimit:10}.st48,.st50,.st62{fill:none;stroke:#011f38;stroke-width:1.2}.st50,.st62{fill:#06f7c9;stroke-width:.8;stroke-miterlimit:10}.st62{fill:none;stroke-width:.3}</style><symbol id="master_x5F_level1_1_" viewBox="-68.6 -66.9 137.2 133.9"><g id="svg_1"><g id="svg_2"><line id="svg_3" x1="0" x2="0" y1="-11.1" y2=".7" class="st0"/><line id="svg_4" x1="5.9" x2="-5.9" y1="-5.2" y2="-5.2" class="st0"/></g><polygon id="svg_5" points="-29.2 -63.9 -65.6 -18.3 -52.6 38.6 0 63.9 52.6 38.6 65.6 -18.3 29.2 -63.9" class="st1"/></g></symbol><symbol id="node_high_level" viewBox="-81 -93 162 186.1"><polygon id="svg_6" points="-80 -46 -80 46 0 92 80 46 80 -46 0 -92" class="st2"/></symbol><symbol id="node_x5F_empty" viewBox="-87.5 -100.6 175.1 201.1"><use id="XMLID_201_" width="162" height="186.1" x="-81" y="-93" transform="matrix(1.0808,0,0,1.0808,-0.00003292006,-0.00003749943)" xlink:href="#node_high_level"/><g id="svg_7"><polygon id="svg_8" points="76.8 -28.1 -14 -80.3 0 -88.3 76.7 -44.4" class="st3"/><polygon id="svg_9" points="76.8 -28.1 32.1 -53.8 38.8 -66.1 76.7 -44.4" class="st4"/></g></symbol><symbol id="node_x5F_new" viewBox="-87.6 -101 175.2 202"><polygon id="svg_10" points="0 -100 -86.6 -50 -86.6 50 0 100 86.6 50 86.6 -50" class="st5"/><polygon id="svg_11" points="-86.6 -20.2 -86.6 -50 0 -100 25.8 -85.1" class="st6"/><polygon id="svg_12" points="-40.8 -70.7 -32.9 -57 15.7 -85.1 0 -94.3" class="st7"/><text id="svg_13" class="st8" font-family="'RobotoSlab-Regular'" font-size="11.363" transform="matrix(0.866,-0.5,-0.5,-0.866,-33.9256,-70.7388)">Docker</text><text id="svg_14" class="st8" font-family="'RobotoSlab-Regular'" font-size="11.363" transform="matrix(0.866,-0.5,-0.5,-0.866,-76.0668,-46.4087)">Kubelt</text></symbol><g id="g1985"><title id="title1814">Layer 1</title><g id="CLUSTER" transform="translate(-22)"><g id="XMLID_8_" class="st9"><g id="svg_15"><linearGradient id="SVGID_1_" x1="27.996" x2="342.451" y1="185.511" y2="185.511" gradientUnits="userSpaceOnUse"><stop id="stop1816" offset="0" stop-color="#326DE6"/><stop id="stop1818" offset="1" stop-color="#10FFC6"/></linearGradient><polygon id="svg_16" points="28 229.4 59.1 92.9 185.2 32.2 311.3 92.9 342.5 229.4 255.2 338.8 115.3 338.8" class="st10" style="fill:url(#SVGID_1_)"/></g></g></g><g id="master" transform="translate(-24)"><use id="svg_17" width="137.2" height="133.9" x="-68.6" y="-66.9" transform="matrix(0.4,0,0,-0.4,185.2213,187.4709)" xlink:href="#master_x5F_level1_1_"/></g><g id="Node" transform="translate(-24)"><polygon id="svg_18" points="224.6 160.7 189 140.1 189 98.9 224.6 78.4 260.3 98.9 260.3 140.1" class="st16"/><polygon id="svg_19" points="189 127.8 189 140.1 224.6 160.7 235.2 154.5" class="st13"/><polygon id="svg_20" points="207.8 148.6 211.1 143 231.1 154.5 224.6 158.3" class="st7"/><g id="svg_21"><path id="svg_22" d="m 213.7,146.5 c 0.4,0.2 0.6,0.5 0.7,0.9 0.1,0.4 0,0.7 -0.2,1.1 l -0.2,0.4 c -0.2,0.4 -0.5,0.6 -0.9,0.7 -0.4,0.1 -0.7,0 -1.1,-0.2 l -1.2,-0.7 0.1,-0.2 0.4,0.1 1.3,-2.3 -0.3,-0.2 0.1,-0.3 0.3,0.2 z m -0.6,0 -1.3,2.3 0.5,0.3 c 0.3,0.2 0.5,0.2 0.8,0.1 0.3,-0.1 0.5,-0.3 0.6,-0.5 l 0.2,-0.4 c 0.2,-0.3 0.2,-0.5 0.2,-0.8 -0.1,-0.3 -0.2,-0.5 -0.5,-0.6 z" class="st8"/><path id="svg_23" d="m 214.3,149.2 c 0.2,-0.3 0.4,-0.5 0.7,-0.6 0.3,-0.1 0.6,-0.1 0.9,0.1 0.3,0.2 0.5,0.4 0.5,0.7 0.1,0.3 0,0.6 -0.2,0.9 v 0 c -0.2,0.3 -0.4,0.5 -0.7,0.6 -0.3,0.1 -0.6,0.1 -0.9,-0.1 -0.3,-0.2 -0.5,-0.4 -0.5,-0.7 0,-0.2 0,-0.5 0.2,-0.9 z m 0.4,0.3 c -0.1,0.2 -0.2,0.4 -0.2,0.6 0,0.2 0.1,0.4 0.3,0.5 0.2,0.1 0.4,0.1 0.5,0 0.2,-0.1 0.3,-0.3 0.5,-0.5 v 0 c 0.1,-0.2 0.2,-0.4 0.2,-0.6 0,-0.2 -0.1,-0.4 -0.3,-0.5 -0.2,-0.1 -0.4,-0.1 -0.6,0 -0.2,0.1 -0.2,0.2 -0.4,0.5 z" class="st8"/><path id="svg_24" d="m 217.1,151.9 c 0.1,0.1 0.3,0.1 0.4,0.1 0.1,0 0.2,-0.1 0.3,-0.2 l 0.4,0.2 v 0 c -0.1,0.2 -0.3,0.3 -0.5,0.3 -0.3,0 -0.5,0 -0.7,-0.1 -0.3,-0.2 -0.5,-0.4 -0.5,-0.7 0,-0.3 0,-0.6 0.2,-0.9 v -0.1 c 0.2,-0.3 0.4,-0.5 0.7,-0.6 0.3,-0.1 0.6,-0.1 0.9,0.1 0.2,0.1 0.3,0.2 0.4,0.4 0.1,0.1 0.2,0.3 0.2,0.4 l -0.3,0.5 -0.3,-0.2 0.1,-0.4 c 0,-0.1 -0.1,-0.1 -0.1,-0.2 -0.1,-0.1 -0.1,-0.1 -0.2,-0.2 -0.2,-0.1 -0.4,-0.1 -0.6,0 -0.2,0.1 -0.3,0.3 -0.4,0.5 v 0.1 c -0.1,0.2 -0.2,0.4 -0.2,0.6 -0.1,0.2 0,0.3 0.2,0.4 z" class="st8"/><path id="svg_25" d="m 219.7,150 0.1,-0.3 0.7,0.4 -1,1.8 0.2,0.1 0.8,-0.3 -0.2,-0.1 0.1,-0.3 0.9,0.5 -0.1,0.3 -0.3,-0.1 -1,0.3 0.2,1.3 0.2,0.2 -0.1,0.2 -0.9,-0.5 0.1,-0.2 0.2,0.1 -0.2,-1 -0.3,-0.1 -0.1,0.7 0.3,0.2 -0.1,0.2 -1,-0.6 0.1,-0.2 0.4,0.1 1.4,-2.5 z" class="st8"/><path id="svg_26" d="m 221.5,154.9 c -0.3,-0.2 -0.5,-0.4 -0.5,-0.7 0,-0.3 0,-0.6 0.2,-0.9 v -0.1 c 0.2,-0.3 0.4,-0.5 0.7,-0.6 0.3,-0.1 0.6,-0.1 0.8,0.1 0.3,0.2 0.5,0.4 0.5,0.6 0,0.3 0,0.5 -0.2,0.8 l -0.1,0.2 -1.4,-0.8 v 0 c -0.1,0.2 -0.2,0.4 -0.1,0.6 0,0.2 0.1,0.3 0.3,0.4 0.1,0.1 0.3,0.1 0.4,0.1 0.1,0 0.2,0 0.3,0 v 0.3 c -0.1,0 -0.3,0 -0.4,0 -0.1,0.2 -0.3,0.1 -0.5,0 z m 1.1,-1.9 c -0.1,-0.1 -0.3,-0.1 -0.4,0 -0.2,0.1 -0.3,0.2 -0.4,0.3 v 0 l 1,0.6 v -0.1 c 0.1,-0.2 0.1,-0.3 0.1,-0.5 -0.1,-0.1 -0.2,-0.2 -0.3,-0.3 z" class="st8"/><path id="svg_27" d="m 223.9,153.7 0.1,-0.3 0.7,0.4 -0.1,0.3 c 0.1,-0.1 0.2,-0.1 0.4,-0.1 0.1,0 0.2,0 0.4,0.1 0,0 0.1,0 0.1,0.1 0,0 0.1,0 0.1,0.1 l -0.3,0.3 -0.2,-0.1 c -0.1,-0.1 -0.2,-0.1 -0.3,-0.1 -0.1,0 -0.2,0 -0.3,0.1 l -0.7,1.2 0.3,0.2 -0.1,0.2 -1,-0.6 0.1,-0.2 0.4,0.1 0.9,-1.5 z" class="st8"/></g><g id="svg_28"><path id="svg_29" d="m 194.3,135.3 0.1,-0.3 0.7,0.4 -1,1.8 0.2,0.1 0.8,-0.3 -0.2,-0.1 0.1,-0.3 0.9,0.5 -0.1,0.3 -0.3,-0.1 -1,0.3 0.2,1.3 0.2,0.2 -0.1,0.2 -0.9,-0.5 0.1,-0.2 0.2,0.1 -0.2,-1 -0.3,-0.1 -0.4,0.7 0.3,0.2 -0.1,0.2 -1,-0.6 0.1,-0.2 0.4,0.1 1.4,-2.5 z" class="st8"/><path id="svg_30" d="m 196.8,140.2 c -0.1,0.1 -0.3,0.1 -0.4,0.1 -0.1,0 -0.3,0 -0.4,-0.1 -0.2,-0.1 -0.4,-0.3 -0.4,-0.5 0,-0.2 0,-0.5 0.2,-0.8 l 0.6,-1 -0.2,-0.2 0.1,-0.3 0.2,0.1 0.4,0.2 -0.7,1.3 c -0.1,0.2 -0.2,0.4 -0.2,0.5 0,0.1 0.1,0.2 0.2,0.3 0.1,0.1 0.3,0.1 0.4,0.1 0.1,0 0.2,0 0.3,-0.1 l 0.7,-1.2 -0.3,-0.2 0.1,-0.3 0.3,0.2 0.4,0.2 -1.1,1.8 0.2,0.2 -0.1,0.2 -0.6,-0.3 z" class="st8"/><path id="svg_31" d="m 200.1,141.2 c -0.2,0.3 -0.4,0.5 -0.7,0.6 -0.3,0.1 -0.5,0.1 -0.8,-0.1 -0.1,-0.1 -0.2,-0.2 -0.3,-0.3 -0.1,-0.1 -0.1,-0.2 -0.1,-0.4 l -0.2,0.3 -0.3,-0.2 1.6,-2.8 -0.3,-0.2 0.1,-0.3 0.7,0.4 -0.7,1.2 c 0.1,-0.1 0.2,-0.1 0.4,-0.1 0.1,0 0.3,0 0.4,0.1 0.3,0.2 0.4,0.4 0.4,0.7 0.1,0.4 0,0.7 -0.2,1.1 z m -0.4,-0.3 c 0.1,-0.2 0.2,-0.5 0.2,-0.7 0,-0.2 -0.1,-0.4 -0.3,-0.5 -0.1,-0.1 -0.2,-0.1 -0.4,-0.1 -0.1,0 -0.2,0.1 -0.3,0.1 l -0.5,0.9 c 0,0.1 0,0.2 0.1,0.3 0.1,0.1 0.1,0.2 0.3,0.3 0.2,0.1 0.4,0.1 0.5,0 0.2,0.1 0.3,0 0.4,-0.3 z" class="st8"/><path id="svg_32" d="m 200.9,143 c -0.3,-0.2 -0.5,-0.4 -0.5,-0.7 0,-0.3 0,-0.6 0.2,-0.9 v -0.1 c 0.2,-0.3 0.4,-0.5 0.7,-0.6 0.3,-0.1 0.6,-0.1 0.8,0.1 0.3,0.2 0.5,0.4 0.5,0.6 0,0.3 0,0.5 -0.2,0.8 l -0.1,0.2 -1.4,-0.8 v 0 c -0.1,0.2 -0.2,0.4 -0.1,0.6 0,0.2 0.1,0.3 0.3,0.4 0.1,0.1 0.3,0.1 0.4,0.1 0.1,0 0.2,0 0.3,0 v 0.3 c -0.1,0 -0.3,0 -0.4,0 -0.2,0.2 -0.3,0.1 -0.5,0 z m 1,-2 c -0.1,-0.1 -0.3,-0.1 -0.4,0 -0.2,0.1 -0.3,0.2 -0.4,0.3 v 0 l 1,0.6 v -0.1 c 0.1,-0.2 0.1,-0.3 0.1,-0.5 0,0 -0.1,-0.2 -0.3,-0.3 z" class="st8"/><path id="svg_33" d="m 203.7,140.8 0.1,-0.3 0.7,0.4 -1.6,2.8 0.3,0.2 -0.1,0.2 -1,-0.6 0.1,-0.2 0.4,0.1 1.4,-2.5 z" class="st8"/><path id="svg_34" d="m 204.3,145 c -0.3,-0.2 -0.5,-0.4 -0.5,-0.7 -0.1,-0.3 0,-0.6 0.2,-0.9 v -0.1 c 0.2,-0.3 0.4,-0.5 0.7,-0.6 0.3,-0.1 0.6,-0.1 0.8,0.1 0.3,0.2 0.5,0.4 0.5,0.6 0,0.3 0,0.5 -0.2,0.8 l -0.1,0.2 -1.4,-0.8 v 0 c -0.1,0.2 -0.2,0.4 -0.1,0.6 0,0.2 0.1,0.3 0.3,0.4 0.1,0.1 0.3,0.1 0.4,0.1 0.1,0 0.2,0 0.3,0 v 0.3 c -0.1,0 -0.3,0 -0.4,0 -0.1,0.1 -0.3,0.1 -0.5,0 z m 1.1,-2 c -0.1,-0.1 -0.3,-0.1 -0.4,0 -0.2,0.1 -0.3,0.2 -0.4,0.3 v 0 l 1,0.6 v -0.1 c 0.1,-0.2 0.1,-0.3 0.1,-0.5 -0.1,-0.1 -0.2,-0.2 -0.3,-0.3 z" class="st8"/><path id="svg_35" d="m 207.8,143.4 -0.3,0.5 0.4,0.2 -0.2,0.3 -0.4,-0.2 -0.8,1.3 c -0.1,0.1 -0.1,0.2 -0.1,0.2 0,0.1 0.1,0.1 0.1,0.2 0,0 0.1,0 0.1,0.1 0,0 0.1,0 0.1,0 l -0.1,0.3 c -0.1,0 -0.1,0 -0.2,0 -0.1,0 -0.2,-0.1 -0.2,-0.1 -0.2,-0.1 -0.3,-0.2 -0.3,-0.4 0,-0.2 0,-0.3 0.1,-0.5 l 0.8,-1.3 -0.3,-0.2 0.2,-0.3 0.3,0.2 0.3,-0.5 z" class="st8"/></g><polygon id="svg_36" points="182.3 140.1 146.6 160.7 111 140.1 111 99 146.6 78.4 182.3 99" class="st16"/><polygon id="svg_37" points="136 154.5 146.6 160.7 182.3 140.1 182.2 127.9" class="st13"/><polygon id="svg_38" points="163.4 148.6 160.2 143 180.2 131.4 180.2 138.9" class="st7"/><g id="svg_39"><path id="svg_40" d="m 164.6,142.5 c 0.4,-0.2 0.7,-0.3 1.1,-0.2 0.4,0.1 0.6,0.3 0.9,0.7 l 0.2,0.4 c 0.2,0.4 0.3,0.7 0.2,1.1 -0.1,0.4 -0.3,0.7 -0.7,0.9 l -1.2,0.7 -0.1,-0.2 0.3,-0.2 -1.3,-2.3 -0.4,0.1 -0.1,-0.3 0.3,-0.2 z m -0.3,0.6 1.3,2.3 0.5,-0.3 c 0.3,-0.2 0.4,-0.4 0.5,-0.6 0.1,-0.3 0,-0.5 -0.2,-0.8 l -0.2,-0.4 c -0.2,-0.3 -0.4,-0.5 -0.6,-0.5 -0.3,-0.1 -0.5,-0.1 -0.8,0.1 z" class="st8"/><path id="svg_41" d="m 167.3,143.4 c -0.2,-0.3 -0.2,-0.6 -0.2,-0.9 0.1,-0.3 0.2,-0.5 0.5,-0.7 0.3,-0.2 0.6,-0.2 0.9,-0.1 0.3,0.1 0.5,0.3 0.7,0.6 v 0 c 0.2,0.3 0.2,0.6 0.2,0.9 -0.1,0.3 -0.2,0.5 -0.5,0.7 -0.3,0.2 -0.6,0.2 -0.9,0.1 -0.3,0 -0.5,-0.3 -0.7,-0.6 z m 0.4,-0.2 c 0.1,0.2 0.3,0.4 0.5,0.5 0.2,0.1 0.4,0.1 0.6,0 0.2,-0.1 0.3,-0.3 0.3,-0.5 0,-0.2 0,-0.4 -0.2,-0.6 v 0 c -0.1,-0.2 -0.3,-0.4 -0.5,-0.5 -0.2,-0.1 -0.4,-0.1 -0.6,0 -0.2,0.1 -0.3,0.3 -0.3,0.5 0,0.2 0,0.3 0.2,0.6 z" class="st8"/><path id="svg_42" d="m 171,142.3 c 0.1,-0.1 0.2,-0.2 0.3,-0.3 0.1,-0.1 0,-0.3 0,-0.4 l 0.3,-0.2 v 0 c 0.1,0.2 0.1,0.4 0,0.6 -0.1,0.2 -0.2,0.4 -0.5,0.6 -0.3,0.2 -0.6,0.2 -0.9,0.1 -0.3,-0.1 -0.5,-0.3 -0.7,-0.6 V 142 c -0.2,-0.3 -0.2,-0.6 -0.2,-0.9 0,-0.3 0.2,-0.5 0.5,-0.7 0.2,-0.1 0.3,-0.2 0.5,-0.2 0.2,0 0.3,0 0.5,0 l 0.3,0.5 -0.3,0.2 -0.3,-0.3 c -0.1,0 -0.2,0 -0.2,0 -0.1,0 -0.2,0 -0.3,0.1 -0.2,0.1 -0.3,0.3 -0.3,0.5 0,0.2 0.1,0.4 0.2,0.6 v 0.1 c 0.1,0.2 0.3,0.4 0.4,0.5 0.3,0.1 0.5,0.1 0.7,-0.1 z" class="st8"/><path id="svg_43" d="m 170.6,139.1 -0.1,-0.3 0.7,-0.4 1,1.8 0.2,-0.1 0.1,-0.8 -0.2,0.1 -0.1,-0.3 0.9,-0.5 0.1,0.3 -0.2,0.2 -0.2,1 1.2,0.5 0.3,-0.1 0.1,0.2 -0.9,0.5 -0.1,-0.2 0.2,-0.1 -1,-0.4 -0.3,0.1 0.4,0.7 0.4,-0.1 0.1,0.2 -1,0.6 -0.1,-0.2 0.3,-0.2 -1.4,-2.6 z" class="st8"/><path id="svg_44" d="m 175.8,140 c -0.3,0.2 -0.6,0.2 -0.9,0.1 -0.3,-0.1 -0.5,-0.3 -0.7,-0.6 l -0.1,-0.1 c -0.2,-0.3 -0.2,-0.6 -0.2,-0.9 0.1,-0.3 0.2,-0.5 0.5,-0.7 0.3,-0.2 0.6,-0.2 0.8,-0.1 0.2,0.1 0.5,0.3 0.6,0.6 l 0.1,0.2 -1.4,0.8 v 0 c 0.1,0.2 0.3,0.3 0.4,0.4 0.2,0.1 0.4,0.1 0.5,0 0.1,-0.1 0.2,-0.2 0.3,-0.3 0.1,-0.1 0.1,-0.2 0.2,-0.3 l 0.3,0.2 c 0,0.1 -0.1,0.2 -0.2,0.4 0.1,0.1 -0.1,0.2 -0.2,0.3 z m -1.2,-1.9 c -0.1,0.1 -0.2,0.2 -0.2,0.4 0,0.2 0,0.3 0.1,0.5 v 0 l 1,-0.6 v -0.1 c -0.1,-0.2 -0.2,-0.3 -0.3,-0.3 -0.3,0 -0.4,0 -0.6,0.1 z" class="st8"/><path id="svg_45" d="m 175.8,137.4 -0.1,-0.3 0.7,-0.4 0.2,0.3 c 0,-0.1 0,-0.3 0.1,-0.4 0.1,-0.1 0.1,-0.2 0.3,-0.3 0,0 0.1,0 0.1,0 0,0 0.1,0 0.1,0 l 0.2,0.4 -0.2,0.1 c -0.1,0.1 -0.2,0.1 -0.2,0.2 0,0.1 -0.1,0.2 0,0.3 l 0.7,1.2 0.4,-0.1 0.1,0.2 -1,0.6 -0.1,-0.2 0.3,-0.2 -0.9,-1.5 z" class="st8"/></g><g id="svg_46"><path id="svg_47" d="m 145.1,153.8 -0.1,-0.3 0.7,-0.4 1,1.8 0.2,-0.1 0.1,-0.8 -0.2,0.1 -0.1,-0.3 0.9,-0.5 0.1,0.3 -0.2,0.2 -0.2,1 1.2,0.5 0.3,-0.1 0.1,0.2 -0.9,0.5 -0.1,-0.2 0.2,-0.1 -1,-0.4 -0.3,0.1 0.4,0.7 0.4,-0.1 0.1,0.2 -1,0.6 -0.1,-0.2 0.3,-0.2 -1.4,-2.5 z" class="st8"/><path id="svg_48" d="m 150.6,154 c 0,0.2 0,0.3 -0.1,0.4 -0.1,0.1 -0.2,0.2 -0.3,0.3 -0.2,0.1 -0.5,0.2 -0.7,0.1 -0.2,-0.1 -0.4,-0.3 -0.6,-0.6 l -0.6,-1 -0.3,0.1 -0.1,-0.3 0.2,-0.1 0.4,-0.2 0.7,1.3 c 0.1,0.2 0.3,0.4 0.4,0.4 0.1,0 0.2,0 0.4,-0.1 0.1,-0.1 0.2,-0.2 0.3,-0.3 0.1,-0.1 0.1,-0.2 0.1,-0.4 l -0.7,-1.2 -0.3,0.1 -0.1,-0.3 0.3,-0.2 0.4,-0.2 1.1,1.8 0.3,-0.1 0.1,0.2 -0.6,0.3 z" class="st8"/><path id="svg_49" d="m 153.1,151.7 c 0.2,0.3 0.2,0.6 0.2,0.9 0,0.3 -0.2,0.5 -0.4,0.6 -0.1,0.1 -0.3,0.1 -0.4,0.1 -0.1,0 -0.3,0 -0.4,-0.1 l 0.1,0.3 -0.3,0.2 -1.6,-2.8 -0.4,0.1 -0.1,-0.3 0.7,-0.4 0.7,1.2 c 0,-0.1 0.1,-0.3 0.1,-0.4 0.1,-0.1 0.2,-0.2 0.3,-0.3 0.3,-0.2 0.5,-0.2 0.8,0 0.3,0.2 0.5,0.5 0.7,0.9 z m -0.4,0.1 c -0.1,-0.2 -0.3,-0.4 -0.5,-0.5 -0.2,-0.1 -0.4,-0.1 -0.5,0 -0.1,0.1 -0.2,0.2 -0.3,0.3 0,0.1 -0.1,0.2 -0.1,0.3 l 0.5,0.9 c 0.1,0.1 0.2,0.1 0.3,0.1 0.1,0 0.2,0 0.4,-0.1 0.2,-0.1 0.3,-0.2 0.3,-0.4 0.1,-0.1 0.1,-0.3 -0.1,-0.6 z" class="st8"/><path id="svg_50" d="m 155.1,151.9 c -0.3,0.2 -0.6,0.2 -0.9,0.1 -0.3,-0.1 -0.5,-0.3 -0.7,-0.6 l -0.1,-0.1 c -0.2,-0.3 -0.2,-0.6 -0.2,-0.9 0.1,-0.3 0.2,-0.5 0.5,-0.7 0.3,-0.2 0.6,-0.2 0.8,-0.1 0.2,0.1 0.5,0.3 0.6,0.6 l 0.1,0.2 -1.4,0.8 v 0 c 0.1,0.2 0.3,0.3 0.4,0.4 0.2,0.1 0.4,0.1 0.5,0 0.1,-0.1 0.2,-0.2 0.3,-0.3 0.1,-0.1 0.1,-0.2 0.2,-0.3 l 0.3,0.2 c 0,0.1 -0.1,0.2 -0.2,0.4 0.1,0.1 0,0.2 -0.2,0.3 z m -1.2,-1.9 c -0.1,0.1 -0.2,0.2 -0.2,0.4 0,0.2 0,0.3 0.1,0.5 v 0 l 1,-0.6 v -0.1 c -0.1,-0.2 -0.2,-0.3 -0.3,-0.3 -0.3,0 -0.4,0 -0.6,0.1 z" class="st8"/><path id="svg_51" d="m 154.6,148.4 -0.1,-0.3 0.7,-0.4 1.6,2.8 0.4,-0.1 0.1,0.2 -1,0.6 -0.1,-0.2 0.3,-0.2 -1.4,-2.5 z" class="st8"/><path id="svg_52" d="m 158.6,149.9 c -0.3,0.2 -0.6,0.2 -0.9,0.1 -0.3,-0.1 -0.5,-0.3 -0.7,-0.6 l -0.1,-0.1 c -0.2,-0.3 -0.2,-0.6 -0.2,-0.9 0.1,-0.3 0.2,-0.5 0.5,-0.7 0.3,-0.2 0.6,-0.2 0.8,-0.1 0.2,0.1 0.5,0.3 0.6,0.6 l 0.1,0.2 -1.4,0.8 v 0 c 0.1,0.2 0.3,0.3 0.4,0.4 0.2,0.1 0.4,0.1 0.5,0 0.1,-0.1 0.2,-0.2 0.3,-0.3 0.1,-0.1 0.1,-0.2 0.2,-0.3 l 0.3,0.2 c 0,0.1 -0.1,0.2 -0.2,0.4 0.1,0.1 -0.1,0.2 -0.2,0.3 z m -1.2,-1.9 c -0.1,0.1 -0.2,0.2 -0.2,0.4 0,0.2 0,0.3 0.1,0.5 v 0 l 1,-0.6 v -0.1 c -0.1,-0.2 -0.2,-0.3 -0.3,-0.3 -0.3,0 -0.5,0 -0.6,0.1 z" class="st8"/><path id="svg_53" d="m 158.9,146.1 0.3,0.5 0.4,-0.2 0.2,0.3 -0.4,0.2 0.8,1.3 c 0.1,0.1 0.1,0.2 0.2,0.2 0.1,0 0.1,0 0.2,0 0,0 0.1,0 0.1,-0.1 0,0 0.1,-0.1 0.1,-0.1 l 0.2,0.2 c 0,0 -0.1,0.1 -0.1,0.2 -0.1,0.1 -0.1,0.1 -0.2,0.1 -0.2,0.1 -0.3,0.1 -0.5,0.1 -0.1,0 -0.3,-0.2 -0.4,-0.4 l -0.7,-1.3 -0.3,0.2 -0.2,-0.3 0.3,-0.2 -0.3,-0.5 z" class="st8"/></g><polygon id="svg_54" points="146.2 296.6 110.6 276.1 110.6 234.9 146.2 214.4 181.9 234.9 181.9 276.1" class="st16"/><polygon id="svg_55" points="135.6 220.5 146.2 214.4 181.9 234.9 181.8 247.2" class="st13"/><polygon id="svg_56" points="163 226.4 159.8 232.1 179.8 243.6 179.8 236.1" class="st7"/><g id="svg_57"><path id="svg_58" d="m 145.8,218.8 0.1,-0.3 0.7,0.4 -1,1.8 0.2,0.1 0.8,-0.3 -0.2,-0.1 0.1,-0.3 0.9,0.5 -0.1,0.3 -0.3,-0.1 -1,0.3 0.2,1.3 0.2,0.2 -0.1,0.2 -0.9,-0.5 0.1,-0.2 0.2,0.1 -0.2,-1 -0.3,-0.1 -0.4,0.7 0.3,0.2 -0.1,0.2 -1,-0.6 0.1,-0.2 0.4,0.1 1.4,-2.5 z" class="st8"/><path id="svg_59" d="m 148.4,223.7 c -0.1,0.1 -0.3,0.1 -0.4,0.1 -0.1,0 -0.3,0 -0.4,-0.1 -0.2,-0.1 -0.4,-0.3 -0.4,-0.5 0,-0.2 0,-0.5 0.2,-0.8 l 0.6,-1 -0.2,-0.2 0.1,-0.3 0.2,0.1 0.4,0.2 -0.7,1.3 c -0.1,0.2 -0.2,0.4 -0.2,0.5 0,0.1 0.1,0.2 0.2,0.3 0.1,0.1 0.3,0.1 0.4,0.1 0.1,0 0.2,0 0.3,-0.1 l 0.7,-1.2 -0.3,-0.2 0.1,-0.3 0.3,0.2 0.4,0.2 -1.1,1.8 0.2,0.2 -0.1,0.2 -0.6,-0.3 z" class="st8"/><path id="svg_60" d="m 151.7,224.7 c -0.2,0.3 -0.4,0.5 -0.7,0.6 -0.3,0.1 -0.5,0.1 -0.8,-0.1 -0.1,-0.1 -0.2,-0.2 -0.3,-0.3 -0.1,-0.1 -0.1,-0.2 -0.1,-0.4 l -0.2,0.3 -0.3,-0.2 1.6,-2.8 -0.3,-0.2 0.1,-0.3 0.7,0.4 -0.7,1.2 c 0.1,-0.1 0.2,-0.1 0.4,-0.1 0.1,0 0.3,0 0.4,0.1 0.3,0.2 0.4,0.4 0.4,0.7 0.1,0.4 0,0.7 -0.2,1.1 z m -0.4,-0.3 c 0.1,-0.2 0.2,-0.5 0.2,-0.7 0,-0.2 -0.1,-0.4 -0.3,-0.5 -0.1,-0.1 -0.2,-0.1 -0.4,-0.1 -0.1,0 -0.2,0.1 -0.3,0.1 l -0.5,0.9 c 0,0.1 0,0.2 0.1,0.3 0.1,0.1 0.1,0.2 0.3,0.3 0.2,0.1 0.4,0.1 0.5,0 0.1,0.1 0.3,-0.1 0.4,-0.3 z" class="st8"/><path id="svg_61" d="m 152.5,226.5 c -0.3,-0.2 -0.5,-0.4 -0.5,-0.7 0,-0.3 0,-0.6 0.2,-0.9 l 0.1,-0.1 c 0.2,-0.3 0.4,-0.5 0.7,-0.6 0.3,-0.1 0.6,-0.1 0.8,0.1 0.3,0.2 0.5,0.4 0.5,0.6 0,0.3 0,0.5 -0.2,0.8 l -0.1,0.2 -1.4,-0.8 v 0 c -0.1,0.2 -0.2,0.4 -0.1,0.6 0,0.2 0.1,0.3 0.3,0.4 0.1,0.1 0.3,0.1 0.4,0.1 0.1,0 0.2,0 0.3,0 v 0.3 c -0.1,0 -0.3,0 -0.4,0 -0.3,0.1 -0.5,0.1 -0.6,0 z m 1,-2 c -0.1,-0.1 -0.3,-0.1 -0.4,0 -0.2,0.1 -0.3,0.2 -0.4,0.3 v 0 l 1,0.6 v -0.1 c 0.1,-0.2 0.1,-0.3 0.1,-0.5 0,-0.2 -0.1,-0.2 -0.3,-0.3 z" class="st8"/><path id="svg_62" d="m 155.3,224.3 0.1,-0.3 0.7,0.4 -1.6,2.8 0.3,0.2 -0.1,0.2 -1,-0.6 0.1,-0.2 0.4,0.1 1.4,-2.5 z" class="st8"/><path id="svg_63" d="m 155.9,228.5 c -0.3,-0.2 -0.5,-0.4 -0.5,-0.7 0,-0.3 0,-0.6 0.2,-0.9 v -0.1 c 0.2,-0.3 0.4,-0.5 0.7,-0.6 0.3,-0.1 0.6,-0.1 0.8,0.1 0.3,0.2 0.5,0.4 0.5,0.6 0,0.3 0,0.5 -0.2,0.8 l -0.1,0.2 -1.4,-0.8 v 0 c -0.1,0.2 -0.2,0.4 -0.1,0.6 0,0.2 0.1,0.3 0.3,0.4 0.1,0.1 0.3,0.1 0.4,0.1 0.1,0 0.2,0 0.3,0 v 0.3 c -0.1,0 -0.3,0 -0.4,0 -0.1,0.1 -0.3,0.1 -0.5,0 z m 1.1,-2 c -0.1,-0.1 -0.3,-0.1 -0.4,0 -0.1,0.1 -0.3,0.2 -0.4,0.3 v 0 l 1,0.6 v -0.1 c 0.1,-0.2 0.1,-0.3 0.1,-0.5 -0.1,-0.1 -0.2,-0.2 -0.3,-0.3 z" class="st8"/><path id="svg_64" d="m 159.4,226.9 -0.3,0.5 0.4,0.2 -0.2,0.3 -0.4,-0.2 -0.8,1.3 c -0.1,0.1 -0.1,0.2 -0.1,0.2 0,0.1 0.1,0.1 0.1,0.2 0,0 0.1,0 0.1,0.1 0,0 0.1,0 0.1,0 l -0.1,0.3 c -0.1,0 -0.1,0 -0.2,0 -0.1,0 -0.2,-0.1 -0.2,-0.1 -0.2,-0.1 -0.3,-0.2 -0.3,-0.4 0,-0.2 0,-0.3 0.1,-0.5 l 0.8,-1.3 -0.3,-0.2 0.2,-0.3 0.3,0.2 0.3,-0.5 z" class="st8"/></g><g id="svg_65"><path id="svg_66" d="m 166.1,230.5 c 0.4,0.2 0.6,0.5 0.7,0.9 0.1,0.4 0,0.7 -0.2,1.1 l -0.2,0.4 c -0.2,0.4 -0.5,0.6 -0.9,0.7 -0.4,0.1 -0.7,0 -1.1,-0.2 l -1.2,-0.7 0.1,-0.2 0.4,0.1 1.3,-2.3 -0.3,-0.2 0.1,-0.3 0.3,0.2 z m -0.7,0 -1.3,2.3 0.5,0.3 c 0.3,0.2 0.5,0.2 0.8,0.1 0.3,-0.1 0.5,-0.3 0.6,-0.5 l 0.2,-0.4 c 0.2,-0.3 0.2,-0.5 0.2,-0.8 -0.1,-0.3 -0.2,-0.5 -0.5,-0.6 z" class="st8"/><path id="svg_67" d="m 166.7,233.2 c 0.2,-0.3 0.4,-0.5 0.7,-0.6 0.3,-0.1 0.6,-0.1 0.9,0.1 0.3,0.2 0.5,0.4 0.5,0.7 0.1,0.3 0,0.6 -0.2,0.9 v 0 c -0.2,0.3 -0.4,0.5 -0.7,0.6 -0.3,0.1 -0.6,0.1 -0.9,-0.1 -0.3,-0.2 -0.5,-0.4 -0.5,-0.7 -0.1,-0.2 0,-0.5 0.2,-0.9 z m 0.3,0.3 c -0.1,0.2 -0.2,0.4 -0.2,0.6 0,0.2 0.1,0.4 0.3,0.5 0.2,0.1 0.4,0.1 0.5,0 0.2,-0.1 0.3,-0.3 0.5,-0.5 v 0 c 0.1,-0.2 0.2,-0.4 0.2,-0.6 0,-0.2 -0.1,-0.4 -0.3,-0.5 -0.2,-0.1 -0.4,-0.1 -0.6,0 -0.1,0.1 -0.2,0.2 -0.4,0.5 z" class="st8"/><path id="svg_68" d="m 169.4,235.9 c 0.1,0.1 0.3,0.1 0.4,0.1 0.1,0 0.2,-0.1 0.3,-0.2 l 0.3,0.2 v 0 c -0.1,0.2 -0.3,0.3 -0.5,0.3 -0.3,0 -0.5,0 -0.7,-0.1 -0.3,-0.2 -0.5,-0.4 -0.5,-0.7 0,-0.3 0,-0.6 0.2,-0.9 v -0.1 c 0.2,-0.3 0.4,-0.5 0.7,-0.6 0.3,-0.1 0.6,-0.1 0.9,0.1 0.2,0.1 0.3,0.2 0.4,0.4 0.1,0.1 0.2,0.3 0.2,0.4 l -0.3,0.5 -0.3,-0.2 0.1,-0.4 c 0,-0.1 -0.1,-0.1 -0.1,-0.2 -0.1,-0.1 -0.1,-0.1 -0.2,-0.2 -0.2,-0.1 -0.4,-0.1 -0.6,0 -0.2,0.1 -0.3,0.3 -0.4,0.5 v 0.1 c -0.1,0.2 -0.2,0.4 -0.2,0.6 0,0.1 0.1,0.3 0.3,0.4 z" class="st8"/><path id="svg_69" d="m 172.1,234 0.1,-0.3 0.7,0.4 -1,1.8 0.2,0.1 0.8,-0.3 -0.2,-0.1 0.1,-0.3 0.9,0.5 -0.1,0.3 -0.3,-0.1 -1,0.3 0.2,1.3 0.2,0.2 -0.1,0.2 -0.9,-0.5 0.1,-0.2 0.2,0.1 -0.2,-1 -0.3,-0.1 -0.4,0.7 0.3,0.2 -0.1,0.2 -1,-0.6 0.1,-0.2 0.4,0.1 1.4,-2.5 z" class="st8"/><path id="svg_70" d="m 173.9,238.9 c -0.3,-0.2 -0.5,-0.4 -0.5,-0.7 -0.1,-0.3 0,-0.6 0.2,-0.9 v -0.1 c 0.2,-0.3 0.4,-0.5 0.7,-0.6 0.3,-0.1 0.6,-0.1 0.8,0.1 0.3,0.2 0.5,0.4 0.5,0.6 0,0.3 0,0.5 -0.2,0.8 l -0.1,0.2 -1.4,-0.8 v 0 c -0.1,0.2 -0.2,0.4 -0.1,0.6 0,0.2 0.1,0.3 0.3,0.4 0.1,0.1 0.3,0.1 0.4,0.1 0.1,0 0.2,0 0.3,0 v 0.3 c -0.1,0 -0.3,0 -0.4,0 -0.2,0.2 -0.4,0.1 -0.5,0 z m 1,-2 c -0.1,-0.1 -0.3,-0.1 -0.4,0 -0.2,0.1 -0.3,0.2 -0.4,0.3 v 0 l 1,0.6 v -0.1 c 0.1,-0.2 0.1,-0.3 0.1,-0.5 0,0 -0.1,-0.2 -0.3,-0.3 z" class="st8"/><path id="svg_71" d="m 176.2,237.7 0.1,-0.3 0.7,0.4 -0.1,0.3 c 0.1,-0.1 0.2,-0.1 0.4,-0.1 0.1,0 0.2,0 0.4,0.1 0,0 0.1,0 0.1,0.1 0,0 0.1,0 0.1,0.1 l -0.3,0.3 -0.2,-0.1 c -0.1,-0.1 -0.2,-0.1 -0.3,-0.1 -0.1,0 -0.2,0 -0.3,0.1 l -0.7,1.2 0.3,0.2 -0.1,0.2 -1,-0.6 0.1,-0.2 0.4,0.1 0.9,-1.5 z" class="st8"/></g></g><g id="pods" transform="translate(-24)"><circle id="svg_72" cx="146.2" cy="119.5" r="20.9" class="st29"/></g><g id="deployments" transform="translate(-22)"><g id="svg_73"><g id="svg_74"><circle id="svg_75" cx="177.4" cy="181.7" r="10.1" class="st47"/><g id="svg_76"><g id="svg_77"><path id="svg_78" d="m 180.9,176 c 1.9,1.2 3.2,3.3 3.2,5.8 0,3.7 -3,6.7 -6.7,6.7 -3.7,0 -6.7,-3 -6.7,-6.7 0,-2.9 1.9,-5.4 4.5,-6.4" class="st48"/><g id="svg_79"><polygon id="svg_80" points="182.4 174.5 179.6 175.4 180.5 178.1 182.1 178.9 181.2 176.2 183.9 175.3" class="st42"/></g></g></g><g id="svg_81"><path id="svg_82" d="m 174.8,185.1 v -6.7 h 2.3 c 0.8,0 1.5,0.3 2,0.8 0.5,0.5 0.8,1.2 0.8,2 v 1.1 c 0,0.8 -0.3,1.5 -0.8,2 -0.5,0.5 -1.2,0.8 -2,0.8 z m 1.3,-5.7 v 4.7 h 0.9 c 0.5,0 0.9,-0.2 1.1,-0.5 0.3,-0.3 0.4,-0.8 0.4,-1.3 v -1.1 c 0,-0.5 -0.1,-0.9 -0.4,-1.3 -0.3,-0.3 -0.7,-0.5 -1.1,-0.5 z" class="st42"/></g></g></g></g><g id="containers_x2F_volumes" transform="translate(-24)"><g id="svg_83"><polygon id="svg_84" points="155.9 113.9 146.2 119.5 136.5 113.9 146.2 108.3" class="st50"/><polygon id="svg_85" points="146.2 119.5 146.2 130.7 136.5 125.1 136.5 113.9" class="st50"/><polygon id="svg_86" points="155.9 113.9 155.9 125.1 146.2 130.7 146.2 119.5" class="st50"/></g></g><g id="description" transform="translate(-22)"><line id="svg_113" x1="360" x2="188.6" y1="203.9" y2="203.9" class="st62"/><line id="svg_125" x1="360" x2="181.5" y1="181.7" y2="181.7" class="st62"/><line id="svg_126" x1="360" x2="159.4" y1="229" y2="229" class="st62"/><line id="svg_127" x1="360" x2="242.8" y1="101.5" y2="101.5" class="st62"/><line id="svg_145" x1="360" x2="150.2" y1="123.7" y2="123.7" class="st62"/><text style="font-size:13.3333px;line-height:1.25;font-family:Courier;-inkscape-font-specification:'Courier, Normal'" id="text1997" x="361.827" y="104.543" xml:space="preserve"><tspan id="tspan1995" x="361.827" y="104.543">Node</tspan></text><text style="font-size:13.3333px;line-height:1.25;font-family:Courier;-inkscape-font-specification:'Courier, Normal'" id="text2001" x="361.242" y="126.477" xml:space="preserve"><tspan id="tspan1999" x="361.242" y="126.477">containerized app</tspan></text><text style="font-size:13.3333px;line-height:1.25;font-family:Courier;-inkscape-font-specification:'Courier, Normal'" id="text2005" x="361.827" y="185.326" xml:space="preserve"><tspan id="tspan2003" x="361.827" y="185.326">Deployment</tspan></text><text style="font-size:13.3333px;line-height:1.25;font-family:Courier;-inkscape-font-specification:'Courier, Normal'" id="text2009" x="361.601" y="207.728" xml:space="preserve"><tspan id="tspan2007" x="361.601" y="207.728">Control Plane</tspan></text><text style="font-size:13.3333px;line-height:1.25;font-family:Courier;-inkscape-font-specification:'Courier, Normal'" id="text2013" x="360.922" y="232.167" xml:space="preserve"><tspan id="tspan2011" x="360.922" y="232.167">node processes</tspan></text><text style="font-style:normal;font-variant:normal;font-weight:700;font-stretch:normal;font-size:13.3333px;line-height:1.25;font-family:Courier;-inkscape-font-specification:'Courier, Bold';font-variant-ligatures:normal;font-variant-caps:normal;font-variant-numeric:normal;font-variant-east-asian:normal" id="text2017" x="113.368" y="350.739" xml:space="preserve"><tspan id="tspan2015" x="113.368" y="350.739">Kubernetes Cluster</tspan></text></g></g></svg>