<svg xmlns="http://www.w3.org/2000/svg" xmlns:svg="http://www.w3.org/2000/svg" xmlns:xlink="http://www.w3.org/1999/xlink" id="svg161" width="476.1" height="385.3" version="1.1"><metadata id="metadata167"/><style id="style10" type="text/css">.st0,.st1{stroke:#006de9}.st0,.st1,.st2{fill:#fff;stroke-linecap:round;stroke-linejoin:round;stroke-miterlimit:10}.st1{stroke-width:6}.st2{stroke:#326de6;stroke-width:2}.st3{opacity:.71;fill:#326ce6}.st4{opacity:.45;fill:#fff}.st5{fill:#fff;stroke:#006de9;stroke-width:2;stroke-linecap:round;stroke-linejoin:round;stroke-miterlimit:10}.st6{fill:#006de9}.st7{fill:#a0caea}.st8{fill:#fff}.st9{opacity:.13}.st10{fill:url(#SVGID_1_)}.st13{fill:#326de6}.st16,.st62{fill:#fff;stroke:#326de6;stroke-width:1.6;stroke-linecap:round;stroke-linejoin:round;stroke-miterlimit:10}.st62{fill:none;stroke:#011f38;stroke-width:.3}</style><symbol id="master_x5F_level1_1_" viewBox="-68.6 -66.9 137.2 133.9"><g id="svg_1"><g id="svg_2"><line id="svg_3" x1="0" x2="0" y1="-11.1" y2=".7" class="st0"/><line id="svg_4" x1="5.9" x2="-5.9" y1="-5.2" y2="-5.2" class="st0"/></g><polygon id="svg_5" points="-29.2 -63.9 -65.6 -18.3 -52.6 38.6 0 63.9 52.6 38.6 65.6 -18.3 29.2 -63.9" class="st1"/></g></symbol><symbol id="node_high_level" viewBox="-81 -93 162 186.1"><polygon id="svg_6" points="-80 -46 -80 46 0 92 80 46 80 -46 0 -92" class="st2"/></symbol><symbol id="node_x5F_empty" viewBox="-87.5 -100.6 175.1 201.1"><use id="XMLID_201_" width="162" height="186.1" x="-81" y="-93" transform="matrix(1.0808,0,0,1.0808,-0.00003292006,-0.00003749943)" xlink:href="#node_high_level"/><g id="svg_7"><polygon id="svg_8" points="76.8 -28.1 -14 -80.3 0 -88.3 76.7 -44.4" class="st3"/><polygon id="svg_9" points="76.8 -28.1 32.1 -53.8 38.8 -66.1 76.7 -44.4" class="st4"/></g></symbol><symbol id="node_x5F_new" viewBox="-87.6 -101 175.2 202"><polygon id="svg_10" points="0 -100 -86.6 -50 -86.6 50 0 100 86.6 50 86.6 -50" class="st5"/><polygon id="svg_11" points="-86.6 -20.2 -86.6 -50 0 -100 25.8 -85.1" class="st6"/><polygon id="svg_12" points="-40.8 -70.7 -32.9 -57 15.7 -85.1 0 -94.3" class="st7"/><text id="svg_13" class="st8" font-family="'RobotoSlab-Regular'" font-size="11.363" transform="matrix(0.866,-0.5,-0.5,-0.866,-33.9256,-70.7388)">Docker</text><text id="svg_14" class="st8" font-family="'RobotoSlab-Regular'" font-size="11.363" transform="matrix(0.866,-0.5,-0.5,-0.866,-76.0668,-46.4087)">Kubelt</text></symbol><g id="g159"><title id="title32">Layer 1</title><g id="CLUSTER" transform="translate(-1.9963203,-15.750631)"><g id="XMLID_296_" class="st9"><g id="svg_15"><linearGradient id="SVGID_1_" x1="28.635" x2="343.09" y1="185.293" y2="185.293" gradientUnits="userSpaceOnUse"><stop id="stop34" offset="0" stop-color="#326DE6"/><stop id="stop36" offset="1" stop-color="#10FFC6"/></linearGradient><polygon id="svg_16" points="343.1 229.2 255.8 338.6 115.9 338.6 28.6 229.2 59.8 92.7 185.9 32 311.9 92.7" class="st10" style="fill:url(#SVGID_1_)"/></g></g></g><g id="master"><use id="svg_17" width="137.2" height="133.9" x="-68.6" y="-66.9" transform="matrix(0.4,0,0,-0.4,185.8606,187.2514)" xlink:href="#master_x5F_level1_1_"/></g><g id="description"><line id="svg_118" x1="351.892" x2="213.521" y1="194.528" y2="194.528" class="st62"/><line id="svg_119" x1="353.234" x2="160" y1="228.8" y2="228.8" class="st62"/><line id="svg_120" x1="360.6" x2="243.4" y1="118.3" y2="118.3" class="st62"/><text style="font-style:normal;font-variant:normal;font-weight:700;font-stretch:normal;font-size:13.3333px;line-height:1.25;font-family:Courier;-inkscape-font-specification:'Courier, Bold';font-variant-ligatures:normal;font-variant-caps:normal;font-variant-numeric:normal;font-variant-east-asian:normal" id="text183" x="106.34" y="341.767" xml:space="preserve"><tspan id="tspan181" x="106.34" y="341.767">Kubernetes Cluster</tspan></text></g><g id="Node"><polygon id="svg_18" points="111.4 139.9 111.4 98.7 147.1 78.2 182.7 98.7 182.7 139.9 147.1 160.4" class="st16"/><polygon id="svg_19" points="129.3 150.2 147.1 160.4 182.7 139.9 182.7 119.3" class="st13"/><polygon id="svg_20" points="163.5 147.7 157.4 137.2 179.9 124.2 179.9 138.3" class="st7"/><g id="svg_21"><path id="svg_22" d="m 162.5,139.3 c 0.4,-0.3 0.9,-0.3 1.3,-0.2 0.4,0.1 0.8,0.4 1,0.8 l 0.3,0.5 c 0.3,0.4 0.3,0.9 0.2,1.3 -0.1,0.4 -0.4,0.8 -0.8,1 l -1.4,0.8 -0.2,-0.3 0.3,-0.3 -1.6,-2.7 -0.4,0.2 -0.2,-0.3 0.4,-0.2 z m -0.4,0.7 1.6,2.7 0.6,-0.3 c 0.3,-0.2 0.5,-0.4 0.6,-0.8 0.1,-0.3 0,-0.6 -0.2,-1 l -0.3,-0.5 c -0.2,-0.3 -0.4,-0.5 -0.7,-0.6 -0.3,-0.1 -0.6,-0.1 -0.9,0.1 z" class="st8"/><path id="svg_23" d="m 165.7,140.3 c -0.2,-0.4 -0.3,-0.8 -0.2,-1.1 0.1,-0.4 0.3,-0.6 0.6,-0.9 0.4,-0.2 0.7,-0.2 1.1,-0.1 0.3,0.1 0.6,0.4 0.9,0.8 v 0.1 c 0.2,0.4 0.3,0.8 0.2,1.1 -0.1,0.4 -0.3,0.6 -0.6,0.8 -0.4,0.2 -0.7,0.2 -1.1,0.1 -0.4,-0.1 -0.7,-0.3 -0.9,-0.8 z m 0.5,-0.2 c 0.2,0.3 0.3,0.5 0.6,0.6 0.2,0.1 0.4,0.1 0.7,0 0.2,-0.1 0.3,-0.3 0.4,-0.6 0,-0.2 -0.1,-0.5 -0.2,-0.8 v -0.1 c -0.2,-0.3 -0.3,-0.5 -0.6,-0.6 -0.2,-0.1 -0.4,-0.1 -0.7,0 -0.2,0.1 -0.3,0.3 -0.4,0.6 -0.1,0.3 0,0.6 0.2,0.9 z" class="st8"/><path id="svg_24" d="m 170.1,139.1 c 0.2,-0.1 0.3,-0.2 0.3,-0.4 0.1,-0.2 0.1,-0.3 0,-0.5 l 0.4,-0.2 v 0 c 0.1,0.2 0.2,0.5 0,0.8 -0.1,0.3 -0.3,0.5 -0.6,0.7 -0.4,0.2 -0.7,0.3 -1.1,0.1 -0.3,-0.1 -0.6,-0.4 -0.8,-0.7 l -0.1,-0.1 c -0.2,-0.4 -0.3,-0.7 -0.2,-1.1 0.1,-0.4 0.3,-0.6 0.6,-0.9 0.2,-0.1 0.4,-0.2 0.6,-0.2 0.2,0 0.4,0 0.6,0 l 0.3,0.6 -0.4,0.2 -0.3,-0.3 c -0.1,0 -0.2,0 -0.3,0 -0.1,0 -0.2,0.1 -0.3,0.1 -0.2,0.1 -0.4,0.3 -0.4,0.6 0,0.2 0.1,0.5 0.2,0.7 l 0.1,0.1 c 0.2,0.3 0.3,0.5 0.5,0.6 0.5,0 0.7,0 0.9,-0.1 z" class="st8"/><path id="svg_25" d="m 169.8,135.2 -0.2,-0.3 0.9,-0.5 1.2,2.1 0.3,-0.2 0.2,-1 -0.3,0.1 -0.2,-0.3 1.1,-0.6 0.2,0.3 -0.3,0.2 -0.2,1.2 1.4,0.6 0.3,-0.1 0.2,0.3 -1.1,0.6 -0.2,-0.3 0.2,-0.2 -1.2,-0.5 -0.3,0.2 0.5,0.8 0.4,-0.2 0.2,0.3 -1.2,0.7 -0.2,-0.3 0.3,-0.3 -1.7,-3 z" class="st8"/><path id="svg_26" d="m 175.9,136.3 c -0.4,0.2 -0.7,0.3 -1.1,0.1 -0.4,-0.2 -0.6,-0.4 -0.9,-0.7 l -0.1,-0.1 c -0.2,-0.4 -0.3,-0.7 -0.2,-1.1 0.1,-0.4 0.3,-0.6 0.6,-0.8 0.3,-0.2 0.7,-0.2 1,-0.1 0.3,0.1 0.5,0.3 0.7,0.7 l 0.2,0.3 -1.7,1 v 0 c 0.1,0.2 0.3,0.4 0.5,0.5 0.2,0.1 0.4,0.1 0.6,-0.1 0.2,-0.1 0.3,-0.2 0.4,-0.3 0.1,-0.1 0.2,-0.2 0.2,-0.4 l 0.4,0.2 c 0,0.1 -0.1,0.3 -0.2,0.4 0,0.1 -0.2,0.2 -0.4,0.4 z m -1.4,-2.3 c -0.2,0.1 -0.3,0.2 -0.3,0.4 0,0.2 0,0.4 0.1,0.6 v 0 l 1.2,-0.7 v -0.1 c -0.1,-0.2 -0.2,-0.3 -0.4,-0.4 -0.2,0.1 -0.4,0.1 -0.6,0.2 z" class="st8"/><path id="svg_27" d="m 176,133.1 -0.2,-0.3 0.8,-0.5 0.3,0.3 c 0,-0.2 0,-0.3 0.1,-0.5 0.1,-0.1 0.2,-0.2 0.3,-0.3 0,0 0.1,0 0.1,-0.1 0,0 0.1,0 0.1,0 l 0.2,0.5 -0.3,0.1 c -0.1,0.1 -0.2,0.2 -0.3,0.3 -0.1,0.1 -0.1,0.2 -0.1,0.4 l 0.8,1.5 0.4,-0.2 0.2,0.3 -1.2,0.7 -0.2,-0.3 0.3,-0.3 -1.1,-1.8 z" class="st8"/></g><g id="svg_28"><path id="svg_29" d="m 141.1,151.8 -0.2,-0.3 0.9,-0.5 1.2,2.1 0.3,-0.2 0.2,-1 -0.3,0.1 -0.2,-0.3 1.1,-0.6 0.2,0.3 -0.3,0.2 -0.2,1.2 1.4,0.6 0.3,-0.1 0.2,0.3 -1.1,0.6 -0.2,-0.3 0.2,-0.2 -1.2,-0.5 -0.3,0.2 0.5,0.8 0.4,-0.2 0.2,0.3 -1.2,0.7 -0.2,-0.3 0.3,-0.3 -1.7,-3 z" class="st8"/><path id="svg_30" d="m 147.6,152 c 0,0.2 0,0.3 -0.1,0.5 -0.1,0.1 -0.2,0.3 -0.4,0.4 -0.3,0.2 -0.5,0.2 -0.8,0.1 -0.3,-0.1 -0.5,-0.3 -0.7,-0.7 l -0.7,-1.1 -0.3,0.1 -0.2,-0.3 0.3,-0.2 0.5,-0.3 0.9,1.5 c 0.2,0.3 0.3,0.4 0.4,0.5 0.1,0.1 0.3,0 0.5,-0.1 0.2,-0.1 0.3,-0.2 0.4,-0.3 0.1,-0.1 0.1,-0.3 0.1,-0.4 l -0.9,-1.5 -0.4,0.1 -0.2,-0.3 0.3,-0.2 0.5,-0.3 1.3,2.2 0.3,-0.1 0.2,0.3 -0.7,0.4 z" class="st8"/><path id="svg_31" d="m 150.6,149.2 c 0.2,0.4 0.3,0.7 0.2,1 0,0.3 -0.2,0.6 -0.5,0.8 -0.2,0.1 -0.3,0.1 -0.5,0.2 -0.2,0 -0.3,0 -0.5,-0.1 l 0.1,0.4 -0.4,0.2 -1.9,-3.3 -0.4,0.2 -0.2,-0.3 0.9,-0.5 0.8,1.4 c 0,-0.2 0.1,-0.3 0.1,-0.4 0.1,-0.1 0.2,-0.2 0.4,-0.3 0.3,-0.2 0.6,-0.2 1,0 0.4,0.2 0.7,0.2 0.9,0.7 z m -0.5,0.2 c -0.2,-0.3 -0.4,-0.5 -0.6,-0.6 -0.2,-0.1 -0.4,-0.1 -0.7,0 -0.1,0.1 -0.2,0.2 -0.3,0.3 -0.1,0.1 -0.1,0.3 -0.1,0.4 l 0.7,1.1 c 0.1,0.1 0.3,0.1 0.4,0.1 0.1,0 0.3,0 0.4,-0.1 0.2,-0.1 0.3,-0.3 0.4,-0.5 0.1,-0.2 0,-0.4 -0.2,-0.7 z" class="st8"/><path id="svg_32" d="m 153,149.5 c -0.4,0.2 -0.7,0.3 -1.1,0.1 -0.4,-0.2 -0.6,-0.4 -0.9,-0.7 l -0.1,-0.1 c -0.2,-0.4 -0.3,-0.7 -0.2,-1.1 0.1,-0.4 0.3,-0.6 0.6,-0.8 0.3,-0.2 0.7,-0.2 1,-0.1 0.3,0.1 0.5,0.3 0.7,0.7 l 0.2,0.3 -1.7,1 v 0 c 0.1,0.2 0.3,0.4 0.5,0.5 0.2,0.1 0.4,0.1 0.6,-0.1 0.2,-0.1 0.3,-0.2 0.4,-0.3 0.1,-0.1 0.2,-0.2 0.2,-0.4 l 0.4,0.2 c 0,0.1 -0.1,0.3 -0.2,0.4 -0.1,0.1 -0.2,0.2 -0.4,0.4 z m -1.4,-2.3 c -0.2,0.1 -0.3,0.2 -0.3,0.4 0,0.2 0,0.4 0.1,0.6 v 0 l 1.2,-0.7 v -0.1 c -0.1,-0.2 -0.2,-0.3 -0.4,-0.4 -0.2,-0.1 -0.4,0.1 -0.6,0.2 z" class="st8"/><path id="svg_33" d="m 152.4,145.2 -0.2,-0.3 0.9,-0.5 1.9,3.3 0.4,-0.2 0.2,0.3 -1.2,0.7 -0.2,-0.3 0.3,-0.3 -1.7,-3 z" class="st8"/><path id="svg_34" d="m 157.1,147.1 c -0.4,0.2 -0.7,0.3 -1.1,0.1 -0.4,-0.2 -0.6,-0.4 -0.9,-0.7 l -0.1,-0.1 c -0.2,-0.4 -0.3,-0.7 -0.2,-1.1 0.1,-0.4 0.3,-0.6 0.6,-0.8 0.3,-0.2 0.7,-0.2 1,-0.1 0.3,0.1 0.5,0.3 0.7,0.7 l 0.2,0.3 -1.7,1 v 0 c 0.1,0.2 0.3,0.4 0.5,0.5 0.2,0.1 0.4,0.1 0.6,-0.1 0.2,-0.1 0.3,-0.2 0.4,-0.3 0.1,-0.1 0.2,-0.2 0.2,-0.4 l 0.4,0.2 c 0,0.1 -0.1,0.3 -0.2,0.4 -0.1,0.1 -0.2,0.3 -0.4,0.4 z m -1.4,-2.3 c -0.2,0.1 -0.3,0.2 -0.3,0.4 0,0.2 0,0.4 0.1,0.6 v 0 l 1.2,-0.7 V 145 c -0.1,-0.2 -0.2,-0.3 -0.4,-0.4 -0.2,0.1 -0.4,0.1 -0.6,0.2 z" class="st8"/><path id="svg_35" d="m 157.5,142.6 0.4,0.6 0.5,-0.3 0.2,0.3 -0.5,0.3 0.9,1.6 c 0.1,0.1 0.1,0.2 0.2,0.2 0.1,0 0.2,0 0.2,0 0,0 0.1,-0.1 0.1,-0.1 0,0 0.1,-0.1 0.1,-0.1 l 0.2,0.3 c 0,0.1 -0.1,0.1 -0.2,0.2 -0.1,0.1 -0.2,0.1 -0.2,0.2 -0.2,0.1 -0.4,0.1 -0.6,0.1 -0.2,0 -0.3,-0.2 -0.5,-0.4 l -0.9,-1.6 -0.4,0.2 -0.2,-0.3 0.4,-0.2 -0.4,-0.6 z" class="st8"/></g><polygon id="svg_36" points="189.4 98.7 225.1 78.2 260.7 98.7 260.7 139.9 225.1 160.4 189.4 139.9" class="st16"/><polygon id="svg_37" points="189.4 119.3 189.4 139.9 225.1 160.4 242.9 150.2" class="st13"/><polygon id="svg_38" points="208.7 147.7 214.8 137.2 237.3 150.2 225.1 157.2" class="st7"/><g id="svg_39"><path id="svg_40" d="m 215.5,142.6 c 0.5,0.3 0.7,0.6 0.8,1 0.1,0.4 0,0.9 -0.2,1.3 l -0.3,0.5 c -0.3,0.4 -0.6,0.7 -1,0.8 -0.4,0.1 -0.9,0 -1.3,-0.2 l -1.4,-0.8 0.2,-0.3 0.4,0.2 1.6,-2.7 -0.3,-0.3 0.2,-0.3 0.4,0.2 z m -0.8,0 -1.6,2.7 0.6,0.3 c 0.3,0.2 0.6,0.2 0.9,0.1 0.3,-0.1 0.6,-0.3 0.7,-0.6 l 0.3,-0.5 c 0.2,-0.3 0.2,-0.6 0.2,-1 -0.1,-0.3 -0.3,-0.6 -0.6,-0.8 z" class="st8"/><path id="svg_41" d="m 216.2,145.9 c 0.2,-0.4 0.5,-0.6 0.8,-0.8 0.3,-0.1 0.7,-0.1 1,0.1 0.4,0.2 0.6,0.5 0.6,0.9 0.1,0.4 0,0.7 -0.2,1.1 v 0.1 c -0.2,0.4 -0.5,0.6 -0.8,0.8 -0.3,0.1 -0.7,0.1 -1,-0.1 -0.4,-0.2 -0.6,-0.5 -0.6,-0.9 -0.1,-0.4 0,-0.8 0.2,-1.2 z m 0.5,0.3 c -0.2,0.3 -0.2,0.5 -0.2,0.8 0,0.2 0.1,0.4 0.4,0.6 0.2,0.1 0.4,0.1 0.7,0 0.2,-0.1 0.4,-0.3 0.6,-0.6 v -0.1 c 0.2,-0.3 0.2,-0.5 0.2,-0.8 0,-0.2 -0.1,-0.4 -0.4,-0.6 -0.2,-0.1 -0.4,-0.1 -0.7,0 -0.3,0.2 -0.5,0.4 -0.6,0.7 z" class="st8"/><path id="svg_42" d="m 219.5,149.1 c 0.2,0.1 0.3,0.1 0.5,0.1 0.2,0 0.3,-0.1 0.4,-0.2 l 0.4,0.2 v 0 c -0.1,0.2 -0.3,0.4 -0.6,0.4 -0.3,0.1 -0.6,0 -0.9,-0.2 -0.4,-0.2 -0.6,-0.5 -0.6,-0.9 -0.1,-0.4 0,-0.7 0.2,-1.1 l 0.1,-0.1 c 0.2,-0.4 0.5,-0.6 0.8,-0.7 0.3,-0.1 0.7,-0.1 1.1,0.1 0.2,0.1 0.4,0.3 0.5,0.4 0.1,0.1 0.2,0.3 0.2,0.5 l -0.3,0.6 -0.4,-0.2 0.1,-0.5 c 0,-0.1 -0.1,-0.2 -0.1,-0.3 -0.1,-0.1 -0.2,-0.2 -0.3,-0.2 -0.2,-0.1 -0.5,-0.2 -0.7,0 -0.2,0.1 -0.4,0.3 -0.5,0.6 l -0.1,0.1 c -0.2,0.3 -0.2,0.5 -0.2,0.7 0.1,0.4 0.2,0.6 0.4,0.7 z" class="st8"/><path id="svg_43" d="m 222.7,146.8 0.2,-0.3 0.9,0.5 -1.2,2.1 0.3,0.2 0.9,-0.4 -0.2,-0.2 0.2,-0.3 1.1,0.6 -0.2,0.3 -0.3,-0.1 -1.1,0.4 0.2,1.5 0.3,0.2 -0.2,0.3 -1.1,-0.6 0.2,-0.3 0.3,0.1 -0.2,-1.2 -0.3,-0.2 -0.5,0.8 0.3,0.3 -0.2,0.3 -1.2,-0.7 0.2,-0.3 0.4,0.2 1.7,-3 z" class="st8"/><path id="svg_44" d="m 224.8,152.7 c -0.4,-0.2 -0.6,-0.5 -0.6,-0.8 0,-0.3 0,-0.7 0.2,-1.1 l 0.1,-0.1 c 0.2,-0.4 0.5,-0.6 0.9,-0.7 0.4,-0.1 0.7,-0.1 1,0.1 0.3,0.2 0.5,0.5 0.6,0.8 0.1,0.3 0,0.6 -0.2,1 l -0.2,0.3 -1.7,-1 v 0 c -0.1,0.2 -0.2,0.5 -0.2,0.7 0,0.2 0.2,0.4 0.4,0.5 0.2,0.1 0.3,0.1 0.5,0.2 0.1,0 0.3,0 0.4,0 v 0.4 c -0.1,0 -0.3,0 -0.5,0 -0.2,0 -0.4,-0.2 -0.7,-0.3 z m 1.3,-2.4 c -0.2,-0.1 -0.3,-0.1 -0.5,0 -0.2,0.1 -0.4,0.2 -0.5,0.4 v 0 l 1.2,0.7 v -0.1 c 0.1,-0.2 0.1,-0.4 0.1,-0.5 0,-0.2 -0.1,-0.4 -0.3,-0.5 z" class="st8"/><path id="svg_45" d="m 227.6,151.2 0.2,-0.3 0.8,0.5 -0.2,0.4 c 0.1,-0.1 0.3,-0.1 0.4,-0.2 0.1,0 0.3,0 0.4,0.1 0,0 0.1,0 0.1,0.1 0,0 0.1,0.1 0.1,0.1 l -0.3,0.4 -0.3,-0.2 c -0.1,-0.1 -0.2,-0.1 -0.4,-0.1 -0.1,0 -0.2,0.1 -0.3,0.1 l -0.8,1.5 0.3,0.3 -0.2,0.3 -1.2,-0.7 0.2,-0.3 0.4,0.2 1.1,-1.8 z" class="st8"/></g><g id="svg_46"><path id="svg_47" d="m 194,130.3 0.2,-0.3 0.9,0.5 -1.2,2.1 0.3,0.2 0.9,-0.4 -0.2,-0.2 0.2,-0.3 1.1,0.6 -0.2,0.3 -0.3,-0.1 -1.1,0.4 0.2,1.5 0.3,0.2 -0.2,0.3 -1.1,-0.6 0.2,-0.3 0.3,0.1 -0.2,-1.2 -0.3,-0.2 -0.5,0.8 0.3,0.3 -0.2,0.3 -1.2,-0.7 0.2,-0.3 0.4,0.2 1.7,-3 z" class="st8"/><path id="svg_48" d="m 197.1,136.1 c -0.2,0.1 -0.3,0.1 -0.5,0.1 -0.2,0 -0.3,0 -0.5,-0.1 -0.3,-0.2 -0.4,-0.4 -0.5,-0.6 -0.1,-0.3 0,-0.6 0.2,-1 l 0.7,-1.1 -0.3,-0.2 0.2,-0.3 0.3,0.2 0.5,0.3 -0.9,1.5 c -0.2,0.3 -0.2,0.5 -0.2,0.6 0,0.1 0.1,0.3 0.3,0.4 0.2,0.1 0.3,0.1 0.5,0.1 0.1,0 0.3,-0.1 0.4,-0.1 l 0.9,-1.5 -0.3,-0.3 0.2,-0.3 0.3,0.2 0.5,0.3 -1.3,2.2 0.3,0.2 -0.2,0.3 -0.7,-0.4 z" class="st8"/><path id="svg_49" d="m 201,137.3 c -0.2,0.4 -0.5,0.6 -0.8,0.7 -0.3,0.1 -0.6,0.1 -0.9,-0.1 -0.2,-0.1 -0.3,-0.2 -0.4,-0.3 -0.1,-0.1 -0.1,-0.3 -0.1,-0.5 l -0.2,0.3 -0.4,-0.2 1.9,-3.3 -0.3,-0.3 0.2,-0.3 0.9,0.5 -0.8,1.4 c 0.1,-0.1 0.3,-0.1 0.5,-0.1 0.2,0 0.3,0.1 0.5,0.2 0.3,0.2 0.5,0.5 0.5,0.8 0,0.3 -0.3,0.7 -0.6,1.2 z m -0.4,-0.4 c 0.2,-0.3 0.3,-0.6 0.3,-0.8 0,-0.2 -0.1,-0.4 -0.3,-0.6 -0.1,-0.1 -0.3,-0.1 -0.4,-0.1 -0.1,0 -0.3,0.1 -0.4,0.1 l -0.7,1.1 c 0,0.2 0,0.3 0.1,0.4 0.1,0.1 0.2,0.2 0.3,0.3 0.2,0.1 0.4,0.1 0.6,0 0.1,0.1 0.3,-0.1 0.5,-0.4 z" class="st8"/><path id="svg_50" d="m 202,139.4 c -0.4,-0.2 -0.6,-0.5 -0.6,-0.8 -0.1,-0.4 0,-0.7 0.2,-1.1 l 0.1,-0.1 c 0.2,-0.4 0.5,-0.6 0.9,-0.7 0.4,-0.1 0.7,-0.1 1,0.1 0.3,0.2 0.5,0.5 0.6,0.8 0.1,0.3 0,0.6 -0.2,1 l -0.2,0.3 -1.7,-1 v 0 c -0.1,0.2 -0.2,0.5 -0.2,0.7 0,0.2 0.2,0.4 0.4,0.5 0.2,0.1 0.3,0.1 0.5,0.2 0.1,0 0.3,0 0.4,0 v 0.4 c -0.1,0 -0.3,0 -0.5,0 -0.3,-0.1 -0.5,-0.1 -0.7,-0.3 z m 1.2,-2.3 c -0.2,-0.1 -0.3,-0.1 -0.5,0 -0.2,0.1 -0.3,0.2 -0.5,0.4 v 0 l 1.2,0.7 v -0.1 c 0.1,-0.2 0.1,-0.4 0.1,-0.5 0,-0.2 -0.1,-0.4 -0.3,-0.5 z" class="st8"/><path id="svg_51" d="m 205.3,136.8 0.2,-0.3 0.9,0.5 -1.9,3.3 0.3,0.3 -0.2,0.3 -1.2,-0.7 0.2,-0.3 0.4,0.2 1.7,-3 z" class="st8"/><path id="svg_52" d="m 206.1,141.8 c -0.4,-0.2 -0.6,-0.5 -0.6,-0.8 -0.1,-0.4 0,-0.7 0.2,-1.1 l 0.1,-0.1 c 0.2,-0.4 0.5,-0.6 0.9,-0.7 0.4,-0.1 0.7,-0.1 1,0.1 0.3,0.2 0.5,0.5 0.6,0.8 0.1,0.3 0,0.6 -0.2,1 l -0.2,0.3 -1.7,-1 v 0 c -0.1,0.2 -0.2,0.5 -0.2,0.7 0,0.2 0.2,0.4 0.4,0.5 0.2,0.1 0.3,0.1 0.5,0.2 0.1,0 0.3,0 0.4,0 v 0.4 c -0.1,0 -0.3,0 -0.5,0 -0.3,-0.1 -0.5,-0.2 -0.7,-0.3 z m 1.2,-2.3 c -0.2,-0.1 -0.3,-0.1 -0.5,0 -0.2,0.1 -0.3,0.2 -0.5,0.4 v 0 l 1.2,0.7 v -0.1 c 0.1,-0.2 0.1,-0.4 0.1,-0.5 0,-0.3 -0.1,-0.4 -0.3,-0.5 z" class="st8"/><path id="svg_53" d="m 210.2,139.9 -0.4,0.6 0.5,0.3 -0.2,0.3 -0.5,-0.3 -0.9,1.6 c -0.1,0.1 -0.1,0.2 -0.1,0.3 0,0.1 0.1,0.1 0.2,0.2 0,0 0.1,0 0.1,0.1 0.1,0 0.1,0 0.1,0.1 l -0.1,0.4 c -0.1,0 -0.1,0 -0.2,0 -0.1,0 -0.2,-0.1 -0.3,-0.1 -0.2,-0.1 -0.3,-0.3 -0.4,-0.4 0,-0.2 0,-0.4 0.1,-0.6 l 0.9,-1.6 -0.4,-0.2 0.2,-0.3 0.4,0.2 0.4,-0.6 z" class="st8"/></g><polygon id="svg_54" points="111.4 234.7 147.1 214.1 182.7 234.7 182.7 275.9 147.1 296.4 111.4 275.9" class="st16"/><polygon id="svg_55" points="129.3 224.4 147.1 214.1 182.7 234.7 182.7 255.3" class="st13"/><polygon id="svg_56" points="163.5 226.9 157.4 237.4 179.9 250.4 179.9 236.3" class="st7"/><g id="svg_57"><path id="svg_58" d="m 164.2,232.3 c 0.5,0.3 0.7,0.6 0.8,1 0.1,0.4 0,0.9 -0.2,1.3 l -0.3,0.5 c -0.3,0.4 -0.6,0.7 -1,0.8 -0.4,0.1 -0.9,0 -1.3,-0.2 l -1.4,-0.8 0.2,-0.3 0.4,0.2 1.6,-2.7 -0.3,-0.3 0.2,-0.3 0.4,0.2 z m -0.8,0 -1.6,2.7 0.6,0.3 c 0.3,0.2 0.6,0.2 0.9,0.1 0.3,-0.1 0.6,-0.3 0.7,-0.6 l 0.3,-0.5 c 0.2,-0.3 0.3,-0.6 0.2,-1 -0.1,-0.3 -0.3,-0.6 -0.6,-0.8 z" class="st8"/><path id="svg_59" d="m 164.9,235.6 c 0.2,-0.4 0.5,-0.6 0.8,-0.8 0.3,-0.1 0.7,-0.1 1,0.1 0.4,0.2 0.6,0.5 0.6,0.9 0.1,0.4 0,0.7 -0.2,1.1 v 0.1 c -0.2,0.4 -0.5,0.6 -0.8,0.8 -0.3,0.1 -0.7,0.1 -1,-0.1 -0.4,-0.2 -0.6,-0.5 -0.6,-0.9 -0.1,-0.4 0,-0.8 0.2,-1.2 z m 0.5,0.3 c -0.2,0.3 -0.2,0.5 -0.2,0.8 0,0.2 0.1,0.4 0.4,0.6 0.2,0.1 0.4,0.1 0.7,0 0.2,-0.1 0.4,-0.3 0.6,-0.6 v -0.1 c 0.2,-0.3 0.2,-0.5 0.2,-0.8 0,-0.2 -0.1,-0.4 -0.4,-0.6 -0.2,-0.1 -0.4,-0.1 -0.7,0 -0.2,0.2 -0.4,0.4 -0.6,0.7 z" class="st8"/><path id="svg_60" d="m 168.2,238.8 c 0.2,0.1 0.3,0.1 0.5,0.1 0.2,0 0.3,-0.1 0.4,-0.2 l 0.4,0.2 v 0 c -0.1,0.2 -0.3,0.4 -0.6,0.4 -0.3,0.1 -0.6,0 -0.9,-0.2 -0.4,-0.2 -0.6,-0.5 -0.6,-0.9 -0.1,-0.4 0,-0.7 0.2,-1.1 l 0.1,-0.1 c 0.2,-0.4 0.5,-0.6 0.8,-0.7 0.3,-0.1 0.7,-0.1 1.1,0.1 0.2,0.1 0.4,0.3 0.5,0.4 0.1,0.1 0.2,0.3 0.2,0.5 l -0.3,0.7 -0.4,-0.2 0.1,-0.5 c 0,-0.1 -0.1,-0.2 -0.1,-0.3 -0.1,-0.1 -0.2,-0.2 -0.3,-0.2 -0.2,-0.1 -0.5,-0.2 -0.7,0 -0.2,0.1 -0.4,0.3 -0.5,0.6 l -0.1,0.1 c -0.2,0.3 -0.2,0.5 -0.2,0.7 0.1,0.3 0.2,0.5 0.4,0.6 z" class="st8"/><path id="svg_61" d="m 171.4,236.5 0.2,-0.3 0.9,0.5 -1.2,2.1 0.3,0.2 0.9,-0.4 -0.2,-0.2 0.2,-0.3 1.1,0.6 -0.2,0.3 H 173 l -1.1,0.4 0.2,1.5 0.3,0.2 -0.2,0.3 -1.1,-0.6 0.2,-0.3 0.3,0.1 -0.2,-1.2 -0.3,-0.2 -0.5,0.8 0.3,0.3 -0.2,0.3 -1.2,-0.7 0.2,-0.3 0.4,0.2 1.7,-3 z" class="st8"/><path id="svg_62" d="m 173.6,242.4 c -0.4,-0.2 -0.6,-0.5 -0.6,-0.8 -0.1,-0.4 0,-0.7 0.2,-1.1 l 0.1,-0.1 c 0.2,-0.4 0.5,-0.6 0.9,-0.7 0.4,-0.1 0.7,-0.1 1,0.1 0.3,0.2 0.5,0.5 0.6,0.8 0.1,0.3 0,0.6 -0.2,1 l -0.2,0.3 -1.7,-1 v 0 c -0.1,0.2 -0.2,0.5 -0.2,0.7 0,0.2 0.2,0.4 0.4,0.5 0.2,0.1 0.3,0.1 0.5,0.2 0.2,0.1 0.3,0 0.4,0 v 0.4 c -0.1,0 -0.3,0 -0.5,0 -0.3,-0.1 -0.5,-0.2 -0.7,-0.3 z m 1.2,-2.4 c -0.2,-0.1 -0.3,-0.1 -0.5,0 -0.2,0.1 -0.4,0.2 -0.5,0.4 v 0 l 1.2,0.7 V 241 c 0.1,-0.2 0.1,-0.4 0.1,-0.5 0,-0.2 -0.1,-0.4 -0.3,-0.5 z" class="st8"/><path id="svg_63" d="m 176.3,240.9 0.2,-0.3 0.8,0.5 -0.2,0.4 c 0.1,-0.1 0.3,-0.1 0.4,-0.2 0.2,0 0.3,0 0.4,0.1 0,0 0.1,0 0.1,0.1 0,0 0.1,0.1 0.1,0.1 l -0.3,0.4 -0.3,-0.2 c -0.1,-0.1 -0.2,-0.1 -0.4,-0.1 -0.1,0 -0.2,0.1 -0.3,0.1 l -0.8,1.5 0.3,0.3 -0.2,0.3 -1.2,-0.7 0.2,-0.3 0.4,0.2 1.1,-1.8 z" class="st8"/></g><g id="svg_64"><path id="svg_65" d="m 142.7,220 0.2,-0.3 0.9,0.5 -1.2,2.1 0.3,0.2 0.9,-0.4 -0.2,-0.2 0.2,-0.3 1.1,0.6 -0.2,0.3 -0.3,-0.1 -1.1,0.4 0.2,1.5 0.3,0.2 -0.2,0.3 -1.1,-0.6 0.2,-0.3 0.3,0.1 -0.2,-1.2 -0.3,-0.2 -0.5,0.8 0.3,0.3 -0.2,0.3 -1.2,-0.7 0.2,-0.3 0.4,0.2 1.7,-3 z" class="st8"/><path id="svg_66" d="m 145.8,225.8 c -0.2,0.1 -0.3,0.1 -0.5,0.1 -0.2,0 -0.3,0 -0.5,-0.1 -0.3,-0.2 -0.4,-0.4 -0.5,-0.6 -0.1,-0.2 0,-0.6 0.2,-1 l 0.7,-1.1 -0.3,-0.2 0.2,-0.3 0.3,0.2 0.5,0.3 -0.9,1.5 c -0.2,0.3 -0.2,0.5 -0.2,0.6 0,0.1 0.1,0.3 0.3,0.4 0.2,0.1 0.3,0.1 0.5,0.1 0.1,0 0.3,-0.1 0.4,-0.1 l 0.9,-1.5 -0.3,-0.3 0.2,-0.3 0.3,0.2 0.5,0.3 -1.3,2.2 0.3,0.2 -0.2,0.3 -0.7,-0.4 z" class="st8"/><path id="svg_67" d="m 149.8,227 c -0.2,0.4 -0.5,0.6 -0.8,0.7 -0.3,0.1 -0.6,0.1 -0.9,-0.1 -0.2,-0.1 -0.3,-0.2 -0.4,-0.3 -0.1,-0.1 -0.1,-0.3 -0.1,-0.5 l -0.2,0.3 -0.4,-0.2 1.9,-3.3 -0.3,-0.3 0.2,-0.3 0.9,0.5 -0.8,1.4 c 0.1,-0.1 0.3,-0.1 0.5,-0.1 0.2,0 0.3,0.1 0.5,0.2 0.3,0.2 0.5,0.5 0.5,0.8 -0.3,0.3 -0.4,0.7 -0.6,1.2 z m -0.5,-0.4 c 0.2,-0.3 0.3,-0.6 0.3,-0.8 0,-0.2 -0.1,-0.4 -0.3,-0.6 -0.1,-0.1 -0.3,-0.1 -0.4,-0.1 -0.1,0 -0.3,0.1 -0.4,0.1 l -0.7,1.1 c 0,0.2 0,0.3 0.1,0.4 0.1,0.1 0.2,0.2 0.3,0.3 0.2,0.1 0.4,0.1 0.6,0 0.2,0.1 0.3,0 0.5,-0.4 z" class="st8"/><path id="svg_68" d="m 150.7,229.1 c -0.4,-0.2 -0.6,-0.5 -0.6,-0.8 -0.1,-0.4 0,-0.7 0.2,-1.1 l 0.1,-0.1 c 0.2,-0.4 0.5,-0.6 0.9,-0.7 0.4,-0.1 0.7,-0.1 1,0.1 0.3,0.2 0.5,0.5 0.6,0.8 0.1,0.3 0,0.6 -0.2,1 l -0.2,0.3 -1.7,-1 v 0 c -0.1,0.2 -0.2,0.5 -0.2,0.7 0,0.2 0.2,0.4 0.4,0.5 0.2,0.1 0.3,0.1 0.5,0.2 0.1,0 0.3,0 0.4,0 v 0.4 c -0.1,0 -0.3,0 -0.5,0 -0.3,-0.1 -0.5,-0.1 -0.7,-0.3 z m 1.2,-2.3 c -0.2,-0.1 -0.3,-0.1 -0.5,0 -0.2,0.1 -0.4,0.2 -0.5,0.4 v 0 l 1.2,0.7 v -0.1 c 0.1,-0.2 0.1,-0.4 0.1,-0.5 0,-0.2 -0.1,-0.4 -0.3,-0.5 z" class="st8"/><path id="svg_69" d="m 154,226.5 0.2,-0.3 0.9,0.5 -1.9,3.3 0.3,0.3 -0.2,0.3 -1.2,-0.7 0.2,-0.3 0.4,0.2 1.7,-3 z" class="st8"/><path id="svg_70" d="m 154.8,231.5 c -0.4,-0.2 -0.6,-0.5 -0.6,-0.8 -0.1,-0.4 0,-0.7 0.2,-1.1 l 0.1,-0.1 c 0.2,-0.4 0.5,-0.6 0.9,-0.7 0.4,-0.1 0.7,-0.1 1,0.1 0.3,0.2 0.5,0.5 0.6,0.8 0.1,0.3 0,0.6 -0.2,1 l -0.2,0.3 -1.7,-1 v 0 c -0.1,0.2 -0.2,0.5 -0.2,0.7 0,0.2 0.2,0.4 0.4,0.5 0.2,0.1 0.3,0.1 0.5,0.2 0.1,0 0.3,0 0.4,0 v 0.4 c -0.1,0 -0.3,0 -0.5,0 -0.3,-0.1 -0.5,-0.1 -0.7,-0.3 z m 1.3,-2.3 c -0.2,-0.1 -0.3,-0.1 -0.5,0 -0.2,0.1 -0.4,0.2 -0.5,0.4 v 0 l 1.2,0.7 v -0.1 c 0.1,-0.2 0.1,-0.4 0.1,-0.5 0,-0.2 -0.1,-0.4 -0.3,-0.5 z" class="st8"/><path id="svg_71" d="m 158.9,229.6 -0.4,0.6 0.5,0.3 -0.2,0.3 -0.5,-0.3 -0.9,1.6 c -0.1,0.1 -0.1,0.2 -0.1,0.3 0,0.1 0.1,0.1 0.2,0.2 0,0 0.1,0 0.1,0.1 0.1,0 0.1,0 0.1,0.1 l -0.1,0.4 c -0.1,0 -0.1,0 -0.2,0 -0.1,0 -0.2,-0.1 -0.3,-0.1 -0.2,-0.1 -0.3,-0.3 -0.4,-0.4 0,-0.2 0,-0.4 0.1,-0.6 l 0.9,-1.6 -0.4,-0.2 0.2,-0.3 0.4,0.2 0.4,-0.6 z" class="st8"/></g></g></g><text style="font-style:normal;font-variant:normal;font-weight:400;font-stretch:normal;font-size:13.3333px;line-height:1.25;font-family:Courier;-inkscape-font-specification:'Courier, Normal';font-variant-ligatures:normal;font-variant-caps:normal;font-variant-numeric:normal;font-variant-east-asian:normal" id="text171" x="354.173" y="198.826" xml:space="preserve"><tspan id="tspan169" x="354.173" y="198.826">Control Plane</tspan></text><text style="font-size:13.3333px;line-height:1.25;font-family:Courier;-inkscape-font-specification:'Courier, Normal'" id="text175" x="364.44" y="122.113" xml:space="preserve"><tspan id="tspan173" x="364.44" y="122.113">Node</tspan></text><text style="font-size:13.3333px;line-height:1.25;font-family:Courier;-inkscape-font-specification:'Courier, Normal'" id="text179" x="354.85" y="232.482" xml:space="preserve"><tspan id="tspan177" x="354.85" y="232.482">Node Processes</tspan></text></svg>