<svg xmlns="http://www.w3.org/2000/svg" width="580" height="400"><g><title>background</title><rect id="canvas_background" width="506.348" height="349.826" x="-1" y="-1" fill="#fff" opacity="0"/><g id="canvasGrid" display="none"><rect id="svg_4" width="100%" height="100%" x="0" y="0" fill="url(#gridpattern)" stroke-width="0" opacity="0"/></g></g><g><title>Layer 1</title><rect id="svg_1" width="336.498" height="242.998" x="126.276" y="84.451" fill="#326ce5" stroke="#000" stroke-width="1.5"/><rect id="svg_2" width="95.3" height="66" x="127.276" y="261.057" fill="#DDD" stroke="#000" stroke-width=".5"/><rect id="svg_3" width="108.3" height="66" x="222.442" y="261.283" fill="#BBB" stroke="#000" stroke-opacity="null"/><rect id="svg_5" width="131" height="66" x="330.775" y="261.283" fill="#fff" stroke="#000" stroke-opacity="null" stroke-width=".5"/><text id="svg_9" x="96.33" y="92.529" fill="#000" fill-opacity="null" stroke="#000" stroke-opacity="null" stroke-width="0" font-family="Helvetica, Arial, sans-serif" font-size="24" text-anchor="start" transform="matrix(0.6039765318373469,0,0,0.6213608286284256,43.920523540443796,7.5797796894100635)" xml:space="preserve">Node Capacity</text><text id="svg_10" x="146.652" y="483.69" fill="#000" fill-opacity="null" stroke="#000" stroke-opacity="null" stroke-width="0" font-family="Helvetica, Arial, sans-serif" font-size="24" text-anchor="start" transform="matrix(0.5187438936507338,0,0,0.5165904901211577,58.14778751529779,47.720737964149194)" xml:space="preserve">kube-reserved</text><text id="svg_11" x="333.319" y="486.271" fill="#000" fill-opacity="null" stroke="#000" stroke-opacity="null" stroke-width="0" font-family="Helvetica, Arial, sans-serif" font-size="24" text-anchor="start" transform="matrix(0.5187438936507338,0,0,0.5165904901211577,58.14778751529779,47.720737964149194)" xml:space="preserve">system-reserved</text><text id="svg_12" x="559.505" y="487.562" fill="#000" fill-opacity="null" stroke="#000" stroke-opacity="null" stroke-width="0" font-family="Helvetica, Arial, sans-serif" font-size="24" text-anchor="start" transform="matrix(0.5187438936507338,0,0,0.5165904901211577,58.14778751529779,47.720737964149194)" xml:space="preserve">eviction-threshold</text><text id="svg_14" x="246.315" y="182.628" fill="#fff" fill-opacity="null" stroke="#000" stroke-opacity="null" stroke-width="0" font-family="Helvetica, Arial, sans-serif" font-size="24" text-anchor="start" transform="matrix(0.8530217831379474,0,0,0.8530217831379474,32.26513711483058,11.272510077186126)" xml:space="preserve">allocatable</text><text id="svg_15" x="191.567" y="217.513" fill="#fff" fill-opacity="null" stroke="#000" stroke-opacity="null" stroke-width="0" font-family="Helvetica, Arial, sans-serif" font-size="24" text-anchor="start" transform="matrix(0.6610298739213645,0,0,0.6148439389614191,97.43948566238379,61.05811172356589)" xml:space="preserve">(available for pods)</text><line id="svg_19" x1="221.692" x2="222.358" y1="348.025" y2="348.025" fill="none" fill-opacity="null" stroke="#000" stroke-opacity="null" stroke-width="null" transform="rotate(0.9628710746765137 222.02513122558057,348.0253906249988)"/><line id="svg_8" x1="125.895" x2="462.858" y1="261.502" y2="261.502" fill="none" fill-opacity="null" stroke="#000" stroke-linecap="square" stroke-opacity="null"/><line id="svg_13" x1="331.241" x2="331.241" y1="261.989" y2="328.339" fill="none" fill-opacity="null" stroke="#000" stroke-linecap="square" stroke-opacity="null"/><line id="svg_17" x1="222.007" x2="222.007" y1="261.502" y2="327.364" fill="none" fill-opacity="null" stroke="#000" stroke-linecap="square" stroke-opacity="null"/></g></svg>