<svg xmlns="http://www.w3.org/2000/svg" xmlns:svg="http://www.w3.org/2000/svg" id="svg673" fill="none" stroke="none" stroke-linecap="square" stroke-miterlimit="10" version="1.1" viewBox="0 0 800 600"><clipPath id="p.0"><path id="path432" d="m0 0l800.0 0l0 600.0l-800.0 0l0 -600.0z" clip-rule="nonzero"/></clipPath><g id="g671" clip-path="url(#p.0)"><path id="path435" fill="#000" fill-opacity="0" fill-rule="evenodd" d="m0 0l800.0 0l0 600.0l-800.0 0z"/><path id="path437" fill="#efefef" fill-rule="evenodd" d="m17.125984 270.90552l244.0 0l0 220.09448l-244.0 0z"/><path id="path439" fill-rule="evenodd" stroke="#000" stroke-dasharray="1 3" stroke-linecap="butt" stroke-linejoin="round" stroke-width="1" d="m17.125984 270.90552l244.0 0l0 220.09448l-244.0 0z"/><path id="path441" fill="#efefef" fill-rule="evenodd" d="m275.6299 270.90552l244.00003 0l0 220.09448l-244.00003 0z"/><path id="path443" fill-rule="evenodd" stroke="#000" stroke-dasharray="1 3" stroke-linecap="butt" stroke-linejoin="round" stroke-width="1" d="m275.6299 270.90552l244.00003 0l0 220.09448l-244.00003 0z"/><path id="path445" fill="#efefef" fill-rule="evenodd" d="m538.87665 270.90552l244.0 0l0 220.09448l-244.0 0z"/><path id="path447" fill-rule="evenodd" stroke="#000" stroke-dasharray="1 3" stroke-linecap="butt" stroke-linejoin="round" stroke-width="1" d="m538.87665 270.90552l244.0 0l0 220.09448l-244.0 0z"/><path id="path449" fill="#d9ead3" fill-rule="evenodd" d="m30.503937 428.03412l738.99207 0l0 80.97638l-738.99207 0z"/><path id="path451" fill-rule="evenodd" stroke="#000" stroke-dasharray="8 3 1 3" stroke-linecap="butt" stroke-linejoin="round" stroke-width="1" d="m30.503937 428.03412l738.99207 0l0 80.97638l-738.99207 0z"/><path id="path453" fill="#a4c2f4" fill-rule="evenodd" d="m49.124672 302.98425l180.0 0l0 41.984253l-180.0 0z"/><path id="path455" fill-rule="evenodd" stroke="#000" stroke-linecap="butt" stroke-linejoin="round" stroke-width="1" d="m49.124672 302.98425l180.0 0l0 41.984253l-180.0 0z"/><path id="path459" fill="#b6d7a8" fill-rule="evenodd" d="m49.124672 428.03412l180.0 0l0 41.984253l-180.0 0z"/><path id="path461" fill-rule="evenodd" stroke="#000" stroke-linecap="butt" stroke-linejoin="round" stroke-width="1" d="m49.124672 428.03412l180.0 0l0 41.984253l-180.0 0z"/><path id="path463" fill="#000" fill-rule="nonzero" d="m129.35262 452.83688l1.6875 0.203125q-0.40625 1.484375 -1.484375 2.3125q-1.078125 0.8125 -2.765625 0.8125q-2.125 0 -3.375 -1.296875q-1.234375 -1.3125 -1.234375 -3.671875q0 -2.453125 1.25 -3.796875q1.265625 -1.34375 3.265625 -1.34375q1.9375 0 3.15625 1.328125q1.234375 1.3125 1.234375 3.703125q0 0.15625 0 0.4375l-7.21875 0q0.09375 1.59375 0.90625 2.453125q0.8125 0.84375 2.015625 0.84375q0.90625 0 1.546875 -0.46875q0.640625 -0.484375 1.015625 -1.515625zm-5.390625 -2.65625l5.40625 0q-0.109375 -1.21875 -0.625 -1.828125q-0.78125 -0.953125 -2.03125 -0.953125q-1.125 0 -1.90625 0.765625q-0.765625 0.75 -0.84375 2.015625zm12.719467 4.296875l0.234375 1.453125q-0.6875 0.140625 -1.234375 0.140625q-0.890625 0 -1.390625 -0.28125q-0.484375 -0.28125 -0.6875 -0.734375q-0.203125 -0.46875 -0.203125 -1.9375l0 -5.578125l-1.203125 0l0 -1.265625l1.203125 0l0 -2.390625l1.625 -0.984375l0 3.375l1.65625 0l0 1.265625l-1.65625 0l0 5.671875q0 0.6875 0.078125 0.890625q0.09375 0.203125 0.28125 0.328125q0.203125 0.109375 0.578125 0.109375q0.265625 0 0.71875 -0.0625zm7.917679 -2.078125l1.609375 0.21875q-0.265625 1.65625 -1.359375 2.609375q-1.078125 0.9375 -2.671875 0.9375q-1.984375 0 -3.1875 -1.296875q-1.203125 -1.296875 -1.203125 -3.71875q0 -1.578125 0.515625 -2.75q0.515625 -1.171875 1.578125 -1.75q1.0625 -0.59375 2.3125 -0.59375q1.578125 0 2.578125 0.796875q1.0 0.796875 1.28125 2.265625l-1.59375 0.234375q-0.234375 -0.96875 -0.8125 -1.453125q-0.578125 -0.5 -1.390625 -0.5q-1.234375 0 -2.015625 0.890625q-0.78125 0.890625 -0.78125 2.8125q0 1.953125 0.75 2.84375q0.75 0.875 1.953125 0.875q0.96875 0 1.609375 -0.59375q0.65625 -0.59375 0.828125 -1.828125zm9.28125 3.546875l0 -1.21875q-0.90625 1.4375 -2.703125 1.4375q-1.15625 0 -2.125 -0.640625q-0.96875 -0.640625 -1.5 -1.78125q-0.53125 -1.140625 -0.53125 -2.625q0 -1.453125 0.484375 -2.625q0.484375 -1.1875 1.4375 -1.8125q0.96875 -0.625 2.171875 -0.625q0.875 0 1.546875 0.375q0.6875 0.359375 1.109375 0.953125l0 -4.796875l1.640625 0l0 13.359375l-1.53125 0zm-5.171875 -4.828125q0 1.859375 0.78125 2.78125q0.78125 0.921875 1.84375 0.921875q1.078125 0 1.828125 -0.875q0.75 -0.890625 0.75 -2.6875q0 -1.984375 -0.765625 -2.90625q-0.765625 -0.9375 -1.890625 -0.9375q-1.078125 0 -1.8125 0.890625q-0.734375 0.890625 -0.734375 2.8125z"/><path id="path465" fill="#cfe2f3" fill-rule="evenodd" d="m49.12336 344.51706l180.0 0l0 41.984253l-180.0 0z"/><path id="path467" fill-rule="evenodd" stroke="#000" stroke-linecap="butt" stroke-linejoin="round" stroke-width="1" d="m49.12336 344.51706l180.0 0l0 41.984253l-180.0 0z"/><path id="path471" fill="#cfe2f3" fill-rule="evenodd" d="m49.12336 386.5013l180.0 0l0 41.984253l-180.0 0z"/><path id="path473" fill-rule="evenodd" stroke="#000" stroke-linecap="butt" stroke-linejoin="round" stroke-width="1" d="m49.12336 386.5013l180.0 0l0 41.984253l-180.0 0z"/><path id="path477" fill="#a4c2f4" fill-rule="evenodd" d="m307.6286 302.98425l180.0 0l0 41.984253l-180.0 0z"/><path id="path479" fill-rule="evenodd" stroke="#000" stroke-linecap="butt" stroke-linejoin="round" stroke-width="1" d="m307.6286 302.98425l180.0 0l0 41.984253l-180.0 0z"/><path id="path483" fill="#b6d7a8" fill-rule="evenodd" d="m307.6286 428.03412l180.0 0l0 41.984253l-180.0 0z"/><path id="path485" fill-rule="evenodd" stroke="#000" stroke-linecap="butt" stroke-linejoin="round" stroke-width="1" d="m307.6286 428.03412l180.0 0l0 41.984253l-180.0 0z"/><path id="path487" fill="#000" fill-rule="nonzero" d="m387.85657 452.83688l1.6875 0.203125q-0.40625 1.484375 -1.484375 2.3125q-1.078125 0.8125 -2.765625 0.8125q-2.125 0 -3.375 -1.296875q-1.234375 -1.3125 -1.234375 -3.671875q0 -2.453125 1.25 -3.796875q1.265625 -1.34375 3.265625 -1.34375q1.9375 0 3.15625 1.328125q1.234375 1.3125 1.234375 3.703125q0 0.15625 0 0.4375l-7.21875 0q0.09375 1.59375 0.90625 2.453125q0.8125 0.84375 2.015625 0.84375q0.90625 0 1.546875 -0.46875q0.640625 -0.484375 1.015625 -1.515625zm-5.390625 -2.65625l5.40625 0q-0.109375 -1.21875 -0.625 -1.828125q-0.78125 -0.953125 -2.03125 -0.953125q-1.125 0 -1.90625 0.765625q-0.765625 0.75 -0.84375 2.015625zm12.719452 4.296875l0.234375 1.453125q-0.6875 0.140625 -1.234375 0.140625q-0.890625 0 -1.390625 -0.28125q-0.484375 -0.28125 -0.6875 -0.734375q-0.203125 -0.46875 -0.203125 -1.9375l0 -5.578125l-1.203125 0l0 -1.265625l1.203125 0l0 -2.390625l1.625 -0.984375l0 3.375l1.65625 0l0 1.265625l-1.65625 0l0 5.671875q0 0.6875 0.078125 0.890625q0.09375 0.203125 0.28125 0.328125q0.203125 0.109375 0.578125 0.109375q0.265625 0 0.71875 -0.0625zm7.917694 -2.078125l1.609375 0.21875q-0.265625 1.65625 -1.359375 2.609375q-1.078125 0.9375 -2.671875 0.9375q-1.984375 0 -3.1875 -1.296875q-1.203125 -1.296875 -1.203125 -3.71875q0 -1.578125 0.515625 -2.75q0.515625 -1.171875 1.578125 -1.75q1.0625 -0.59375 2.3125 -0.59375q1.578125 0 2.578125 0.796875q1.0 0.796875 1.28125 2.265625l-1.59375 0.234375q-0.234375 -0.96875 -0.8125 -1.453125q-0.578125 -0.5 -1.390625 -0.5q-1.234375 0 -2.015625 0.890625q-0.78125 0.890625 -0.78125 2.8125q0 1.953125 0.75 2.84375q0.75 0.875 1.953125 0.875q0.96875 0 1.609375 -0.59375q0.65625 -0.59375 0.828125 -1.828125zm9.28125 3.546875l0 -1.21875q-0.90625 1.4375 -2.703125 1.4375q-1.15625 0 -2.125 -0.640625q-0.96875 -0.640625 -1.5 -1.78125q-0.53125 -1.140625 -0.53125 -2.625q0 -1.453125 0.484375 -2.625q0.484375 -1.1875 1.4375 -1.8125q0.96875 -0.625 2.171875 -0.625q0.875 0 1.546875 0.375q0.6875 0.359375 1.109375 0.953125l0 -4.796875l1.640625 0l0 13.359375l-1.53125 0zm-5.171875 -4.828125q0 1.859375 0.78125 2.78125q0.78125 0.921875 1.84375 0.921875q1.078125 0 1.828125 -0.875q0.75 -0.890625 0.75 -2.6875q0 -1.984375 -0.765625 -2.90625q-0.765625 -0.9375 -1.890625 -0.9375q-1.078125 0 -1.8125 0.890625q-0.734375 0.890625 -0.734375 2.8125z"/><path id="path489" fill="#cfe2f3" fill-rule="evenodd" d="m307.6273 344.51706l180.0 0l0 41.984253l-180.0 0z"/><path id="path491" fill-rule="evenodd" stroke="#000" stroke-linecap="butt" stroke-linejoin="round" stroke-width="1" d="m307.6273 344.51706l180.0 0l0 41.984253l-180.0 0z"/><path id="path495" fill="#cfe2f3" fill-rule="evenodd" d="m307.6273 386.5013l180.0 0l0 41.984253l-180.0 0z"/><path id="path497" fill-rule="evenodd" stroke="#000" stroke-linecap="butt" stroke-linejoin="round" stroke-width="1" d="m307.6273 386.5013l180.0 0l0 41.984253l-180.0 0z"/><path id="path501" fill="#a4c2f4" fill-rule="evenodd" d="m570.8753 302.98425l180.0 0l0 41.984253l-180.0 0z"/><path id="path503" fill-rule="evenodd" stroke="#000" stroke-linecap="butt" stroke-linejoin="round" stroke-width="1" d="m570.8753 302.98425l180.0 0l0 41.984253l-180.0 0z"/><path id="path507" fill="#000" fill-opacity="0" fill-rule="evenodd" d="m307.6273 471.56693l180.0 0l0 30.740173l-180.0 0z"/><path id="path511" fill="#b6d7a8" fill-rule="evenodd" d="m570.8753 428.03412l180.0 0l0 41.984253l-180.0 0z"/><path id="path513" fill-rule="evenodd" stroke="#000" stroke-linecap="butt" stroke-linejoin="round" stroke-width="1" d="m570.8753 428.03412l180.0 0l0 41.984253l-180.0 0z"/><path id="path515" fill="#000" fill-rule="nonzero" d="m651.1033 452.83688l1.6875 0.203125q-0.40625 1.484375 -1.484375 2.3125q-1.078125 0.8125 -2.765625 0.8125q-2.125 0 -3.375 -1.296875q-1.234375 -1.3125 -1.234375 -3.671875q0 -2.453125 1.25 -3.796875q1.265625 -1.34375 3.265625 -1.34375q1.9375 0 3.15625 1.328125q1.234375 1.3125 1.234375 3.703125q0 0.15625 0 0.4375l-7.21875 0q0.09375 1.59375 0.90625 2.453125q0.8125 0.84375 2.015625 0.84375q0.90625 0 1.546875 -0.46875q0.640625 -0.484375 1.015625 -1.515625zm-5.390625 -2.65625l5.40625 0q-0.109375 -1.21875 -0.625 -1.828125q-0.78125 -0.953125 -2.03125 -0.953125q-1.125 0 -1.90625 0.765625q-0.765625 0.75 -0.84375 2.015625zm12.719482 4.296875l0.234375 1.453125q-0.6875 0.140625 -1.234375 0.140625q-0.890625 0 -1.390625 -0.28125q-0.484375 -0.28125 -0.6875 -0.734375q-0.203125 -0.46875 -0.203125 -1.9375l0 -5.578125l-1.203125 0l0 -1.265625l1.203125 0l0 -2.390625l1.625 -0.984375l0 3.375l1.65625 0l0 1.265625l-1.65625 0l0 5.671875q0 0.6875 0.078125 0.890625q0.09375 0.203125 0.28125 0.328125q0.203125 0.109375 0.578125 0.109375q0.265625 0 0.71875 -0.0625zm7.9176636 -2.078125l1.609375 0.21875q-0.265625 1.65625 -1.359375 2.609375q-1.078125 0.9375 -2.671875 0.9375q-1.984375 0 -3.1875 -1.296875q-1.203125 -1.296875 -1.203125 -3.71875q0 -1.578125 0.515625 -2.75q0.515625 -1.171875 1.578125 -1.75q1.0625 -0.59375 2.3125 -0.59375q1.578125 0 2.578125 0.796875q1.0 0.796875 1.28125 2.265625l-1.59375 0.234375q-0.234375 -0.96875 -0.8125 -1.453125q-0.578125 -0.5 -1.390625 -0.5q-1.234375 0 -2.015625 0.890625q-0.78125 0.890625 -0.78125 2.8125q0 1.953125 0.75 2.84375q0.75 0.875 1.953125 0.875q0.96875 0 1.609375 -0.59375q0.65625 -0.59375 0.828125 -1.828125zm9.28125 3.546875l0 -1.21875q-0.90625 1.4375 -2.703125 1.4375q-1.15625 0 -2.125 -0.640625q-0.96875 -0.640625 -1.5 -1.78125q-0.53125 -1.140625 -0.53125 -2.625q0 -1.453125 0.484375 -2.625q0.484375 -1.1875 1.4375 -1.8125q0.96875 -0.625 2.171875 -0.625q0.875 0 1.546875 0.375q0.6875 0.359375 1.109375 0.953125l0 -4.796875l1.640625 0l0 13.359375l-1.53125 0zm-5.171875 -4.828125q0 1.859375 0.78125 2.78125q0.78125 0.921875 1.84375 0.921875q1.078125 0 1.828125 -0.875q0.75 -0.890625 0.75 -2.6875q0 -1.984375 -0.765625 -2.90625q-0.765625 -0.9375 -1.890625 -0.9375q-1.078125 0 -1.8125 0.890625q-0.734375 0.890625 -0.734375 2.8125z"/><path id="path517" fill="#cfe2f3" fill-rule="evenodd" d="m570.874 344.51706l180.0 0l0 41.984253l-180.0 0z"/><path id="path519" fill-rule="evenodd" stroke="#000" stroke-linecap="butt" stroke-linejoin="round" stroke-width="1" d="m570.874 344.51706l180.0 0l0 41.984253l-180.0 0z"/><path id="path523" fill="#cfe2f3" fill-rule="evenodd" d="m570.874 386.5013l180.0 0l0 41.984253l-180.0 0z"/><path id="path525" fill-rule="evenodd" stroke="#000" stroke-linecap="butt" stroke-linejoin="round" stroke-width="1" d="m570.874 386.5013l180.0 0l0 41.984253l-180.0 0z"/><path id="path529" fill="#ffe599" fill-rule="evenodd" d="m319.8808 206.52231l155.49606 0l0 41.984253l-155.49606 0z"/><path id="path531" fill-rule="evenodd" stroke="#000" stroke-linecap="butt" stroke-linejoin="round" stroke-width="1" d="m319.8808 206.52231l155.49606 0l0 41.984253l-155.49606 0z"/><path id="path535" fill="#000" fill-opacity="0" fill-rule="evenodd" d="m139.12466 302.98425l0 -75.46457l180.75592 0"/><path id="path537" fill-rule="evenodd" stroke="#000" stroke-dasharray="4 3" stroke-linecap="butt" stroke-linejoin="round" stroke-width="1" d="m139.12466 302.98425l0 -75.46457l180.75592 0"/><path id="path539" fill="#000" fill-opacity="0" fill-rule="evenodd" d="m397.6286 302.98425l0 -27.238647l0.06298828 0l0 -27.249542"/><path id="path541" fill-rule="evenodd" stroke="#000" stroke-dasharray="8 3" stroke-linecap="butt" stroke-linejoin="round" stroke-width="1" d="m397.6286 302.98425l0 -27.238647l0.06298828 0l0 -27.249542"/><path id="path543" fill="#000" fill-opacity="0" fill-rule="evenodd" d="m475.36353 227.51968l185.51178 0l0 75.46457"/><path id="path545" fill-rule="evenodd" stroke="#000" stroke-dasharray="8 3" stroke-linecap="butt" stroke-linejoin="round" stroke-width="1" d="m475.36353 227.51968l185.51178 0l0 75.46457"/><path id="path547" fill="#000" fill-opacity="0" fill-rule="evenodd" d="m9.251968 0l338.74017 0l0 41.984253l-338.74017 0z"/><path id="path551" fill="#000" fill-opacity="0" fill-rule="evenodd" d="m272.50787 269.25986l130.99213 0l0 30.740143l-130.99213 0z"/><path id="path555" fill="#fce5cd" fill-rule="evenodd" d="m52.11155 64.46457l126.015755 0l0 46.04724l-126.015755 0z"/><path id="path557" fill-rule="evenodd" stroke="#000" stroke-linecap="butt" stroke-linejoin="round" stroke-width="1" d="m52.11155 64.46457l126.015755 0l0 46.04724l-126.015755 0z"/><path id="path561" fill="#fce5cd" fill-rule="evenodd" d="m193.11154 64.46457l126.01575 0l0 46.04724l-126.01575 0z"/><path id="path563" fill-rule="evenodd" stroke="#000" stroke-linecap="butt" stroke-linejoin="round" stroke-width="1" d="m193.11154 64.46457l126.01575 0l0 46.04724l-126.01575 0z"/><path id="path567" fill="#fce5cd" fill-rule="evenodd" d="m335.1273 64.46457l126.01575 0l0 46.04724l-126.01575 0z"/><path id="path569" fill-rule="evenodd" stroke="#000" stroke-linecap="butt" stroke-linejoin="round" stroke-width="1" d="m335.1273 64.46457l126.01575 0l0 46.04724l-126.01575 0z"/><path id="path573" fill="#fce5cd" fill-rule="evenodd" d="m476.1273 64.46457l126.01578 0l0 46.04724l-126.01578 0z"/><path id="path575" fill-rule="evenodd" stroke="#000" stroke-linecap="butt" stroke-linejoin="round" stroke-width="1" d="m476.1273 64.46457l126.01578 0l0 46.04724l-126.01578 0z"/><path id="path579" fill="#fce5cd" fill-rule="evenodd" d="m617.1273 64.46457l126.01575 0l0 46.04724l-126.01575 0z"/><path id="path581" fill-rule="evenodd" stroke="#000" stroke-linecap="butt" stroke-linejoin="round" stroke-width="1" d="m617.1273 64.46457l126.01575 0l0 46.04724l-126.01575 0z"/><path id="path585" fill="#000" fill-opacity="0" fill-rule="evenodd" d="m115.11942 110.51181l222.86615 94.48819"/><path id="path587" fill-rule="evenodd" stroke="#000" stroke-dasharray="4 3" stroke-linecap="butt" stroke-linejoin="round" stroke-width="1" d="m115.11942 110.51181l217.3421 92.14618"/><path id="path589" fill="#000" fill-rule="evenodd" stroke="#000" stroke-linecap="butt" stroke-width="1" d="m331.8168 204.1787l4.822815 0.2506714l-3.5333557 -3.2920837z"/><path id="path591" fill="#000" fill-opacity="0" fill-rule="evenodd" d="m256.11942 110.51181l117.88977 96.50394"/><path id="path593" fill-rule="evenodd" stroke="#000" stroke-dasharray="4 3" stroke-linecap="butt" stroke-linejoin="round" stroke-width="1" d="m256.11942 110.51181l113.24698 92.70337"/><path id="path595" fill="#000" fill-rule="evenodd" stroke="#000" stroke-linecap="butt" stroke-width="1" d="m368.32013 204.49329l4.557831 1.5964508l-2.465332 -4.1526794z"/><path id="path597" fill="#000" fill-opacity="0" fill-rule="evenodd" d="m398.13516 110.51181l-0.50393677 96.0"/><path id="path599" fill-rule="evenodd" stroke="#000" stroke-dasharray="4 3" stroke-linecap="butt" stroke-linejoin="round" stroke-width="1" d="m398.13516 110.51181l-0.47244263 90.00008"/><path id="path601" fill="#000" fill-rule="evenodd" stroke="#000" stroke-linecap="butt" stroke-width="1" d="m396.01102 200.50322l1.6278992 4.546707l1.6755371 -4.529358z"/><path id="path603" fill="#000" fill-opacity="0" fill-rule="evenodd" d="m539.1352 110.51181l-110.141754 96.50394"/><path id="path605" fill-rule="evenodd" stroke="#000" stroke-dasharray="4 3" stroke-linecap="butt" stroke-linejoin="round" stroke-width="1" d="m539.1352 110.51181l-105.62891 92.5499"/><path id="path607" fill="#000" fill-rule="evenodd" stroke="#000" stroke-linecap="butt" stroke-width="1" d="m432.41776 201.81938l-2.324768 4.232956l4.50177 -1.7483063z"/><path id="path609" fill="#000" fill-opacity="0" fill-rule="evenodd" d="m680.1352 110.51181l-216.126 95.49606"/><path id="path611" fill-rule="evenodd" stroke="#000" stroke-dasharray="4 3" stroke-linecap="butt" stroke-linejoin="round" stroke-width="1" d="m680.1352 110.51181l-210.63785 93.071106"/><path id="path613" fill="#000" fill-rule="evenodd" stroke="#000" stroke-linecap="butt" stroke-width="1" d="m468.82974 202.0721l-3.483368 3.3449402l4.818512 -0.32328796z"/><path id="path615" fill="#000" fill-opacity="0" fill-rule="evenodd" d="m229.12466 323.97638l16.875336 0l0 125.03937l-16.812332 0"/><path id="path617" fill-rule="evenodd" stroke="#000" stroke-linecap="butt" stroke-linejoin="round" stroke-width="1" d="m235.12466 323.97638l10.875336 0l0 125.03937l-10.812332 0"/><path id="path619" fill="#000" fill-rule="evenodd" stroke="#000" stroke-linecap="butt" stroke-width="1" d="m235.12466 322.32465l-4.538086 1.6517334l4.538086 1.6517334z"/><path id="path621" fill="#000" fill-rule="evenodd" stroke="#000" stroke-linecap="butt" stroke-width="1" d="m235.18767 447.364l-4.538101 1.6517334l4.538101 1.6517334z"/><path id="path623" fill="#000" fill-opacity="0" fill-rule="evenodd" d="m487.6286 323.99213l16.371399 0l0 125.03937l-16.30841 0"/><path id="path625" fill-rule="evenodd" stroke="#000" stroke-linecap="butt" stroke-linejoin="round" stroke-width="1" d="m493.6286 323.99213l10.371399 0l0 125.03937l-10.308411 0"/><path id="path627" fill="#000" fill-rule="evenodd" stroke="#000" stroke-linecap="butt" stroke-width="1" d="m493.6286 322.3404l-4.538086 1.6517334l4.538086 1.6517334z"/><path id="path629" fill="#000" fill-rule="evenodd" stroke="#000" stroke-linecap="butt" stroke-width="1" d="m493.6916 447.37976l-4.538086 1.6517334l4.538086 1.6517334z"/><path id="path631" fill="#000" fill-opacity="0" fill-rule="evenodd" d="m750.8753 323.97638l18.124695 0l0 125.03937l-18.061707 0"/><path id="path633" fill-rule="evenodd" stroke="#000" stroke-linecap="butt" stroke-linejoin="round" stroke-width="1" d="m756.8753 323.97638l12.124695 0l0 125.03937l-12.061707 0"/><path id="path635" fill="#000" fill-rule="evenodd" stroke="#000" stroke-linecap="butt" stroke-width="1" d="m756.8753 322.32465l-4.538086 1.6517334l4.538086 1.6517334z"/><path id="path637" fill="#000" fill-rule="evenodd" stroke="#000" stroke-linecap="butt" stroke-width="1" d="m756.9383 447.364l-4.538086 1.6517334l4.538086 1.6517334z"/><path id="path639" fill="#cfe2f3" fill-rule="evenodd" d="m65.12336 440.7861l0 0c0 1.2502441 4.0541153 2.2637634 9.055115 2.2637634c5.001007 0 9.055122 -1.0135193 9.055122 -2.2637634l0 16.480316c0 1.2502441 -4.0541153 2.2637634 -9.055122 2.2637634c-5.0009995 0 -9.055115 -1.0135193 -9.055115 -2.2637634z"/><path id="path641" fill="#e2edf7" fill-rule="evenodd" d="m65.12336 440.7861l0 0c0 -1.2502747 4.0541153 -2.263794 9.055115 -2.263794c5.001007 0 9.055122 1.0135193 9.055122 2.263794l0 0c0 1.2502441 -4.0541153 2.2637634 -9.055122 2.2637634c-5.0009995 0 -9.055115 -1.0135193 -9.055115 -2.2637634z"/><path id="path643" fill="#000" fill-opacity="0" fill-rule="evenodd" d="m83.2336 440.7861l0 0c0 1.2502441 -4.0541153 2.2637634 -9.055122 2.2637634c-5.0009995 0 -9.055115 -1.0135193 -9.055115 -2.2637634l0 0c0 -1.2502747 4.0541153 -2.263794 9.055115 -2.263794c5.001007 0 9.055122 1.0135193 9.055122 2.263794l0 16.480316c0 1.2502441 -4.0541153 2.2637634 -9.055122 2.2637634c-5.0009995 0 -9.055115 -1.0135193 -9.055115 -2.2637634l0 -16.480316"/><path id="path645" fill-rule="evenodd" stroke="#000" stroke-linecap="butt" stroke-linejoin="round" stroke-width="1" d="m83.2336 440.7861l0 0c0 1.2502441 -4.0541153 2.2637634 -9.055122 2.2637634c-5.0009995 0 -9.055115 -1.0135193 -9.055115 -2.2637634l0 0c0 -1.2502747 4.0541153 -2.263794 9.055115 -2.263794c5.001007 0 9.055122 1.0135193 9.055122 2.263794l0 16.480316c0 1.2502441 -4.0541153 2.2637634 -9.055122 2.2637634c-5.0009995 0 -9.055115 -1.0135193 -9.055115 -2.2637634l0 -16.480316"/><path id="path647" fill="#cfe2f3" fill-rule="evenodd" d="m322.0105 440.7861l0 0c0 1.2502441 4.0541077 2.2637634 9.055115 2.2637634c5.001007 0 9.055115 -1.0135193 9.055115 -2.2637634l0 16.480316c0 1.2502441 -4.0541077 2.2637634 -9.055115 2.2637634c-5.001007 0 -9.055115 -1.0135193 -9.055115 -2.2637634z"/><path id="path649" fill="#e2edf7" fill-rule="evenodd" d="m322.0105 440.7861l0 0c0 -1.2502747 4.0541077 -2.263794 9.055115 -2.263794c5.001007 0 9.055115 1.0135193 9.055115 2.263794l0 0c0 1.2502441 -4.0541077 2.2637634 -9.055115 2.2637634c-5.001007 0 -9.055115 -1.0135193 -9.055115 -2.2637634z"/><path id="path651" fill="#000" fill-opacity="0" fill-rule="evenodd" d="m340.12073 440.7861l0 0c0 1.2502441 -4.0541077 2.2637634 -9.055115 2.2637634c-5.001007 0 -9.055115 -1.0135193 -9.055115 -2.2637634l0 0c0 -1.2502747 4.0541077 -2.263794 9.055115 -2.263794c5.001007 0 9.055115 1.0135193 9.055115 2.263794l0 16.480316c0 1.2502441 -4.0541077 2.2637634 -9.055115 2.2637634c-5.001007 0 -9.055115 -1.0135193 -9.055115 -2.2637634l0 -16.480316"/><path id="path653" fill-rule="evenodd" stroke="#000" stroke-linecap="butt" stroke-linejoin="round" stroke-width="1" d="m340.12073 440.7861l0 0c0 1.2502441 -4.0541077 2.2637634 -9.055115 2.2637634c-5.001007 0 -9.055115 -1.0135193 -9.055115 -2.2637634l0 0c0 -1.2502747 4.0541077 -2.263794 9.055115 -2.263794c5.001007 0 9.055115 1.0135193 9.055115 2.263794l0 16.480316c0 1.2502441 -4.0541077 2.2637634 -9.055115 2.2637634c-5.001007 0 -9.055115 -1.0135193 -9.055115 -2.2637634l0 -16.480316"/><path id="path655" fill="#cfe2f3" fill-rule="evenodd" d="m586.87665 440.7861l0 0c0 1.2502441 4.054077 2.2637634 9.055115 2.2637634c5.0009766 0 9.055115 -1.0135193 9.055115 -2.2637634l0 16.480316c0 1.2502441 -4.054138 2.2637634 -9.055115 2.2637634c-5.0010376 0 -9.055115 -1.0135193 -9.055115 -2.2637634z"/><path id="path657" fill="#e2edf7" fill-rule="evenodd" d="m586.87665 440.7861l0 0c0 -1.2502747 4.054077 -2.263794 9.055115 -2.263794c5.0009766 0 9.055115 1.0135193 9.055115 2.263794l0 0c0 1.2502441 -4.054138 2.2637634 -9.055115 2.2637634c-5.0010376 0 -9.055115 -1.0135193 -9.055115 -2.2637634z"/><path id="path659" fill="#000" fill-opacity="0" fill-rule="evenodd" d="m604.9869 440.7861l0 0c0 1.2502441 -4.054138 2.2637634 -9.055115 2.2637634c-5.0010376 0 -9.055115 -1.0135193 -9.055115 -2.2637634l0 0c0 -1.2502747 4.054077 -2.263794 9.055115 -2.263794c5.0009766 0 9.055115 1.0135193 9.055115 2.263794l0 16.480316c0 1.2502441 -4.054138 2.2637634 -9.055115 2.2637634c-5.0010376 0 -9.055115 -1.0135193 -9.055115 -2.2637634l0 -16.480316"/><path id="path661" fill-rule="evenodd" stroke="#000" stroke-linecap="butt" stroke-linejoin="round" stroke-width="1" d="m604.9869 440.7861l0 0c0 1.2502441 -4.054138 2.2637634 -9.055115 2.2637634c-5.0010376 0 -9.055115 -1.0135193 -9.055115 -2.2637634l0 0c0 -1.2502747 4.054077 -2.263794 9.055115 -2.263794c5.0009766 0 9.055115 1.0135193 9.055115 2.263794l0 16.480316c0 1.2502441 -4.054138 2.2637634 -9.055115 2.2637634c-5.0010376 0 -9.055115 -1.0135193 -9.055115 -2.2637634l0 -16.480316"/><path id="path663" fill="#000" fill-opacity="0" fill-rule="evenodd" d="m12.006561 269.25986l130.99213 0l0 30.740143l-130.99213 0z"/><path id="path667" fill="#000" fill-opacity="0" fill-rule="evenodd" d="m534.13257 269.25986l130.99213 0l0 30.740143l-130.99213 0z"/></g><text style="font-size:13.3333px;fill:#000" id="text837" x="343.366" y="496.173" xml:space="preserve"><tspan id="tspan835" x="343.366" y="496.173" style="font-size:13.3333px">堆叠的 etcd 集群</tspan></text><text style="font-size:13.3333px;fill:#000" id="text837-0" x="27.313" y="291.018" xml:space="preserve"><tspan id="tspan835-3" x="27.313" y="291.018" style="font-size:13.3333px">控制平面节点</tspan></text><text style="font-size:21.3333px;fill:#000" id="text837-0-4" x="69.329" y="96.798" xml:space="preserve"><tspan id="tspan835-3-1" x="69.329" y="96.798" style="font-size:21.3333px">工作节点</tspan></text><text style="font-size:21.3333px;fill:#000" id="text837-0-4-8" x="15.275" y="37.045" xml:space="preserve"><tspan id="tspan835-3-1-7" x="15.275" y="37.045" style="font-size:21.3333px">kubeadm 高可用拓扑 - 堆叠的 etcd</tspan></text><text style="font-size:21.3333px;fill:#000" id="text837-0-4-3" x="216.621" y="96.37" xml:space="preserve"><tspan id="tspan835-3-1-5" x="216.621" y="96.37" style="font-size:21.3333px">工作节点</tspan></text><text style="font-size:21.3333px;fill:#000" id="text837-0-4-3-4" x="346.057" y="237.492" xml:space="preserve"><tspan id="tspan835-3-1-5-3" x="346.057" y="237.492" style="font-size:21.3333px">负载均衡器</tspan></text><text style="font-size:18.6667px;fill:#000" id="text837-0-4-3-4-4" x="88.547" y="333.592" xml:space="preserve"><tspan id="tspan835-3-1-5-3-0" x="88.547" y="333.592" style="font-size:18.6667px">API 服务器</tspan></text><text style="font-size:18.6667px;fill:#000" id="text837-0-4-3-4-4-2" x="80.712" y="374.672" xml:space="preserve"><tspan id="tspan835-3-1-5-3-0-4" x="80.712" y="374.672" style="font-size:18.6667px">控制器管理器</tspan></text><text style="font-size:18.6667px;fill:#000" id="text837-0-4-3-4-4-2-45" x="106.909" y="414.404" xml:space="preserve"><tspan id="tspan835-3-1-5-3-0-4-9" x="106.909" y="414.404" style="font-size:18.6667px">调度器</tspan></text><text style="font-size:18.6667px;fill:#000" id="text837-0-4-3-4-4-2-45-1" x="369.937" y="415.947" xml:space="preserve"><tspan id="tspan835-3-1-5-3-0-4-9-4" x="369.937" y="415.947" style="font-size:18.6667px">调度器</tspan></text><text style="font-size:18.6667px;fill:#000" id="text837-0-4-3-4-4-2-45-8" x="637.799" y="414.149" xml:space="preserve"><tspan id="tspan835-3-1-5-3-0-4-9-8" x="637.799" y="414.149" style="font-size:18.6667px">调度器</tspan></text><text style="font-size:18.6667px;fill:#000" id="text837-0-4-3-4-4-2-4" x="339.714" y="376.652" xml:space="preserve"><tspan id="tspan835-3-1-5-3-0-4-1" x="339.714" y="376.652" style="font-size:18.6667px">控制器管理器</tspan></text><text style="font-size:18.6667px;fill:#000" id="text837-0-4-3-4-4-2-6" x="609.374" y="375.753" xml:space="preserve"><tspan id="tspan835-3-1-5-3-0-4-12" x="609.374" y="375.753" style="font-size:18.6667px">控制器管理器</tspan></text><text style="font-size:18.6667px;fill:#000" id="text837-0-4-3-4-4-4" x="348.574" y="334.223" xml:space="preserve"><tspan id="tspan835-3-1-5-3-0-2" x="348.574" y="334.223" style="font-size:18.6667px">API 服务器</tspan></text><text style="font-size:18.6667px;fill:#000" id="text837-0-4-3-4-4-1" x="615.537" y="333.324" xml:space="preserve"><tspan id="tspan835-3-1-5-3-0-9" x="615.537" y="333.324" style="font-size:18.6667px">API 服务器</tspan></text><text style="font-size:21.3333px;fill:#000" id="text837-0-4-2" x="351.451" y="96.572" xml:space="preserve"><tspan id="tspan835-3-1-2" x="351.451" y="96.572" style="font-size:21.3333px">工作节点</tspan></text><text style="font-size:21.3333px;fill:#000" id="text837-0-4-6" x="493.471" y="96.37" xml:space="preserve"><tspan id="tspan835-3-1-6" x="493.471" y="96.37" style="font-size:21.3333px">工作节点</tspan></text><text style="font-size:21.3333px;fill:#000" id="text837-0-4-7" x="633.694" y="96.37" xml:space="preserve"><tspan id="tspan835-3-1-8" x="633.694" y="96.37" style="font-size:21.3333px">工作节点</tspan></text><text style="font-size:13.3333px;fill:#000" id="text837-0-3" x="285.956" y="289.155" xml:space="preserve"><tspan id="tspan835-3-2" x="285.956" y="289.155" style="font-size:13.3333px">控制平面节点</tspan></text><text style="font-size:13.3333px;fill:#000" id="text837-0-6" x="550.222" y="290.953" xml:space="preserve"><tspan id="tspan835-3-9" x="550.222" y="290.953" style="font-size:13.3333px">控制平面节点</tspan></text></svg>