<svg xmlns="http://www.w3.org/2000/svg" xmlns:svg="http://www.w3.org/2000/svg" id="svg673" fill="none" stroke="none" stroke-linecap="square" stroke-miterlimit="10" version="1.1" viewBox="0 0 800 600"><clipPath id="p.0"><path id="path432" d="m0 0l800.0 0l0 600.0l-800.0 0l0 -600.0z" clip-rule="nonzero"/></clipPath><g id="g671" clip-path="url(#p.0)"><path id="path435" fill="#000" fill-opacity="0" fill-rule="evenodd" d="m0 0l800.0 0l0 600.0l-800.0 0z"/><path id="path437" fill="#efefef" fill-rule="evenodd" d="m17.125984 231.90552l244.0 0l0 175.1496l-244.0 0z"/><path id="path439" fill-rule="evenodd" stroke="#000" stroke-dasharray="1 3" stroke-linecap="butt" stroke-linejoin="round" stroke-width="1" d="m17.125984 231.90552l244.0 0l0 175.1496l-244.0 0z"/><path id="path441" fill="#efefef" fill-rule="evenodd" d="m275.6299 231.90552l244.00003 0l0 175.1496l-244.00003 0z"/><path id="path443" fill-rule="evenodd" stroke="#000" stroke-dasharray="1 3" stroke-linecap="butt" stroke-linejoin="round" stroke-width="1" d="m275.6299 231.90552l244.00003 0l0 175.1496l-244.00003 0z"/><path id="path445" fill="#efefef" fill-rule="evenodd" d="m538.87665 231.90552l244.0 0l0 175.1496l-244.0 0z"/><path id="path447" fill-rule="evenodd" stroke="#000" stroke-dasharray="1 3" stroke-linecap="butt" stroke-linejoin="round" stroke-width="1" d="m538.87665 231.90552l244.0 0l0 175.1496l-244.0 0z"/><path id="path449" fill="#d9ead3" fill-rule="evenodd" d="m30.503937 449.2756l738.99207 0l0 87.99997l-738.99207 0z"/><path id="path451" fill-rule="evenodd" stroke="#000" stroke-dasharray="1 3" stroke-linecap="butt" stroke-linejoin="round" stroke-width="1" d="m30.503937 449.2756l738.99207 0l0 87.99997l-738.99207 0z"/><path id="path453" fill="#a4c2f4" fill-rule="evenodd" d="m49.124672 263.98425l180.0 0l0 41.984253l-180.0 0z"/><path id="path455" fill-rule="evenodd" stroke="#000" stroke-linecap="butt" stroke-linejoin="round" stroke-width="1" d="m49.124672 263.98425l180.0 0l0 41.984253l-180.0 0z"/><path id="path459" fill="#cfe2f3" fill-rule="evenodd" d="m49.12336 305.51706l180.0 0l0 41.984253l-180.0 0z"/><path id="path461" fill-rule="evenodd" stroke="#000" stroke-linecap="butt" stroke-linejoin="round" stroke-width="1" d="m49.12336 305.51706l180.0 0l0 41.984253l-180.0 0z"/><path id="path465" fill="#cfe2f3" fill-rule="evenodd" d="m49.12336 347.5013l180.0 0l0 41.984253l-180.0 0z"/><path id="path467" fill-rule="evenodd" stroke="#000" stroke-linecap="butt" stroke-linejoin="round" stroke-width="1" d="m49.12336 347.5013l180.0 0l0 41.984253l-180.0 0z"/><path id="path471" fill="#a4c2f4" fill-rule="evenodd" d="m307.6286 263.98425l180.0 0l0 41.984253l-180.0 0z"/><path id="path473" fill-rule="evenodd" stroke="#000" stroke-linecap="butt" stroke-linejoin="round" stroke-width="1" d="m307.6286 263.98425l180.0 0l0 41.984253l-180.0 0z"/><path id="path477" fill="#b6d7a8" fill-rule="evenodd" d="m307.62598 485.27823l180.0 0l0 41.984222l-180.0 0z"/><path id="path479" fill-rule="evenodd" stroke="#000" stroke-linecap="butt" stroke-linejoin="round" stroke-width="1" d="m307.62598 485.27823l180.0 0l0 41.984222l-180.0 0z"/><path id="path483" fill="#cfe2f3" fill-rule="evenodd" d="m307.6273 305.51706l180.0 0l0 41.984253l-180.0 0z"/><path id="path485" fill-rule="evenodd" stroke="#000" stroke-linecap="butt" stroke-linejoin="round" stroke-width="1" d="m307.6273 305.51706l180.0 0l0 41.984253l-180.0 0z"/><path id="path489" fill="#cfe2f3" fill-rule="evenodd" d="m307.6273 347.5013l180.0 0l0 41.984253l-180.0 0z"/><path id="path491" fill-rule="evenodd" stroke="#000" stroke-linecap="butt" stroke-linejoin="round" stroke-width="1" d="m307.6273 347.5013l180.0 0l0 41.984253l-180.0 0z"/><path id="path495" fill="#a4c2f4" fill-rule="evenodd" d="m570.8753 263.98425l180.0 0l0 41.984253l-180.0 0z"/><path id="path497" fill-rule="evenodd" stroke="#000" stroke-linecap="butt" stroke-linejoin="round" stroke-width="1" d="m570.8753 263.98425l180.0 0l0 41.984253l-180.0 0z"/><path id="path501" fill="#cfe2f3" fill-rule="evenodd" d="m570.874 305.51706l180.0 0l0 41.984253l-180.0 0z"/><path id="path503" fill-rule="evenodd" stroke="#000" stroke-linecap="butt" stroke-linejoin="round" stroke-width="1" d="m570.874 305.51706l180.0 0l0 41.984253l-180.0 0z"/><path id="path507" fill="#cfe2f3" fill-rule="evenodd" d="m570.874 347.5013l180.0 0l0 41.984253l-180.0 0z"/><path id="path509" fill-rule="evenodd" stroke="#000" stroke-linecap="butt" stroke-linejoin="round" stroke-width="1" d="m570.874 347.5013l180.0 0l0 41.984253l-180.0 0z"/><path id="path513" fill="#ffe599" fill-rule="evenodd" d="m319.8808 167.52231l155.49606 0l0 41.984253l-155.49606 0z"/><path id="path515" fill-rule="evenodd" stroke="#000" stroke-linecap="butt" stroke-linejoin="round" stroke-width="1" d="m319.8808 167.52231l155.49606 0l0 41.984253l-155.49606 0z"/><path id="path519" fill="#000" fill-opacity="0" fill-rule="evenodd" d="m139.12466 263.98425l0 -75.46457l180.75592 0"/><path id="path521" fill-rule="evenodd" stroke="#000" stroke-dasharray="4 3" stroke-linecap="butt" stroke-linejoin="round" stroke-width="1" d="m139.12466 263.98425l0 -75.46457l180.75592 0"/><path id="path523" fill="#000" fill-opacity="0" fill-rule="evenodd" d="m397.6286 263.98425l0 -27.238647l0.06298828 0l0 -27.249542"/><path id="path525" fill-rule="evenodd" stroke="#000" stroke-dasharray="8 3" stroke-linecap="butt" stroke-linejoin="round" stroke-width="1" d="m397.6286 263.98425l0 -27.238647l0.06298828 0l0 -27.249542"/><path id="path527" fill="#000" fill-opacity="0" fill-rule="evenodd" d="m306.8714 448.9147l180.75589 0l0 30.740143l-180.75589 0z"/><path id="path531" fill="#000" fill-opacity="0" fill-rule="evenodd" d="m475.36353 188.51968l185.51178 0l0 75.46457"/><path id="path533" fill-rule="evenodd" stroke="#000" stroke-dasharray="8 3" stroke-linecap="butt" stroke-linejoin="round" stroke-width="1" d="m475.36353 188.51968l185.51178 0l0 75.46457"/><path id="path535" fill="#000" fill-opacity="0" fill-rule="evenodd" d="m9.251968 0l362.74017 0l0 41.984253l-362.74017 0z"/><path id="path539" fill="#000" fill-opacity="0" fill-rule="evenodd" d="m272.50787 230.25984l130.99213 0l0 30.740158l-130.99213 0z"/><path id="path543" fill="#fce5cd" fill-rule="evenodd" d="m52.11155 55.464565l126.015755 0l0 46.047245l-126.015755 0z"/><path id="path545" fill-rule="evenodd" stroke="#000" stroke-linecap="butt" stroke-linejoin="round" stroke-width="1" d="m52.11155 55.464565l126.015755 0l0 46.047245l-126.015755 0z"/><path id="path549" fill="#fce5cd" fill-rule="evenodd" d="m193.11154 55.464565l126.01575 0l0 46.047245l-126.01575 0z"/><path id="path551" fill-rule="evenodd" stroke="#000" stroke-linecap="butt" stroke-linejoin="round" stroke-width="1" d="m193.11154 55.464565l126.01575 0l0 46.047245l-126.01575 0z"/><path id="path555" fill="#fce5cd" fill-rule="evenodd" d="m335.1273 55.464565l126.01575 0l0 46.047245l-126.01575 0z"/><path id="path557" fill-rule="evenodd" stroke="#000" stroke-linecap="butt" stroke-linejoin="round" stroke-width="1" d="m335.1273 55.464565l126.01575 0l0 46.047245l-126.01575 0z"/><path id="path561" fill="#fce5cd" fill-rule="evenodd" d="m476.1273 55.464565l126.01578 0l0 46.047245l-126.01578 0z"/><path id="path563" fill-rule="evenodd" stroke="#000" stroke-linecap="butt" stroke-linejoin="round" stroke-width="1" d="m476.1273 55.464565l126.01578 0l0 46.047245l-126.01578 0z"/><path id="path567" fill="#fce5cd" fill-rule="evenodd" d="m617.1273 55.464565l126.01575 0l0 46.047245l-126.01575 0z"/><path id="path569" fill-rule="evenodd" stroke="#000" stroke-linecap="butt" stroke-linejoin="round" stroke-width="1" d="m617.1273 55.464565l126.01575 0l0 46.047245l-126.01575 0z"/><path id="path573" fill="#cfe2f3" fill-rule="evenodd" d="m322.00787 498.03018l0 0c0 1.2502441 4.0541077 2.263794 9.055115 2.263794c5.001007 0 9.055115 -1.0135498 9.055115 -2.263794l0 16.480316c0 1.2502441 -4.0541077 2.263794 -9.055115 2.263794c-5.001007 0 -9.055115 -1.0135498 -9.055115 -2.263794z"/><path id="path575" fill="#e2edf7" fill-rule="evenodd" d="m322.00787 498.03018l0 0c0 -1.2502441 4.0541077 -2.2637634 9.055115 -2.2637634c5.001007 0 9.055115 1.0135193 9.055115 2.2637634l0 0c0 1.2502441 -4.0541077 2.263794 -9.055115 2.263794c-5.001007 0 -9.055115 -1.0135498 -9.055115 -2.263794z"/><path id="path577" fill="#000" fill-opacity="0" fill-rule="evenodd" d="m340.1181 498.03018l0 0c0 1.2502441 -4.0541077 2.263794 -9.055115 2.263794c-5.001007 0 -9.055115 -1.0135498 -9.055115 -2.263794l0 0c0 -1.2502441 4.0541077 -2.2637634 9.055115 -2.2637634c5.001007 0 9.055115 1.0135193 9.055115 2.2637634l0 16.480316c0 1.2502441 -4.0541077 2.263794 -9.055115 2.263794c-5.001007 0 -9.055115 -1.0135498 -9.055115 -2.263794l0 -16.480316"/><path id="path579" fill-rule="evenodd" stroke="#000" stroke-linecap="butt" stroke-linejoin="round" stroke-width="1" d="m340.1181 498.03018l0 0c0 1.2502441 -4.0541077 2.263794 -9.055115 2.263794c-5.001007 0 -9.055115 -1.0135498 -9.055115 -2.263794l0 0c0 -1.2502441 4.0541077 -2.2637634 9.055115 -2.2637634c5.001007 0 9.055115 1.0135193 9.055115 2.2637634l0 16.480316c0 1.2502441 -4.0541077 2.263794 -9.055115 2.263794c-5.001007 0 -9.055115 -1.0135498 -9.055115 -2.263794l0 -16.480316"/><path id="path581" fill="#000" fill-opacity="0" fill-rule="evenodd" d="m12.006561 230.25984l130.99213 0l0 30.740158l-130.99213 0z"/><path id="path585" fill="#000" fill-opacity="0" fill-rule="evenodd" d="m534.13257 230.25984l130.99213 0l0 30.740158l-130.99213 0z"/><path id="path589" fill="#b6d7a8" fill-rule="evenodd" d="m571.14307 485.27823l180.0 0l0 41.984222l-180.0 0z"/><path id="path591" fill-rule="evenodd" stroke="#000" stroke-linecap="butt" stroke-linejoin="round" stroke-width="1" d="m571.14307 485.27823l180.0 0l0 41.984222l-180.0 0z"/><path id="path595" fill="#cfe2f3" fill-rule="evenodd" d="m585.52496 498.03018l0 0c0 1.2502441 4.054077 2.263794 9.055115 2.263794c5.0009766 0 9.055115 -1.0135498 9.055115 -2.263794l0 16.480316c0 1.2502441 -4.054138 2.263794 -9.055115 2.263794c-5.0010376 0 -9.055115 -1.0135498 -9.055115 -2.263794z"/><path id="path597" fill="#e2edf7" fill-rule="evenodd" d="m585.52496 498.03018l0 0c0 -1.2502441 4.054077 -2.2637634 9.055115 -2.2637634c5.0009766 0 9.055115 1.0135193 9.055115 2.2637634l0 0c0 1.2502441 -4.054138 2.263794 -9.055115 2.263794c-5.0010376 0 -9.055115 -1.0135498 -9.055115 -2.263794z"/><path id="path599" fill="#000" fill-opacity="0" fill-rule="evenodd" d="m603.6352 498.03018l0 0c0 1.2502441 -4.054138 2.263794 -9.055115 2.263794c-5.0010376 0 -9.055115 -1.0135498 -9.055115 -2.263794l0 0c0 -1.2502441 4.054077 -2.2637634 9.055115 -2.2637634c5.0009766 0 9.055115 1.0135193 9.055115 2.2637634l0 16.480316c0 1.2502441 -4.054138 2.263794 -9.055115 2.263794c-5.0010376 0 -9.055115 -1.0135498 -9.055115 -2.263794l0 -16.480316"/><path id="path601" fill-rule="evenodd" stroke="#000" stroke-linecap="butt" stroke-linejoin="round" stroke-width="1" d="m603.6352 498.03018l0 0c0 1.2502441 -4.054138 2.263794 -9.055115 2.263794c-5.0010376 0 -9.055115 -1.0135498 -9.055115 -2.263794l0 0c0 -1.2502441 4.054077 -2.2637634 9.055115 -2.2637634c5.0009766 0 9.055115 1.0135193 9.055115 2.2637634l0 16.480316c0 1.2502441 -4.054138 2.263794 -9.055115 2.263794c-5.0010376 0 -9.055115 -1.0135498 -9.055115 -2.263794l0 -16.480316"/><path id="path603" fill="#b6d7a8" fill-rule="evenodd" d="m45.728348 485.27823l180.0 0l0 41.984222l-180.0 0z"/><path id="path605" fill-rule="evenodd" stroke="#000" stroke-linecap="butt" stroke-linejoin="round" stroke-width="1" d="m45.728348 485.27823l180.0 0l0 41.984222l-180.0 0z"/><path id="path609" fill="#cfe2f3" fill-rule="evenodd" d="m60.110237 498.03018l0 0c0 1.2502441 4.0541153 2.263794 9.055115 2.263794c5.001007 0 9.055122 -1.0135498 9.055122 -2.263794l0 16.480316c0 1.2502441 -4.0541153 2.263794 -9.055122 2.263794c-5.0009995 0 -9.055115 -1.0135498 -9.055115 -2.263794z"/><path id="path611" fill="#e2edf7" fill-rule="evenodd" d="m60.110237 498.03018l0 0c0 -1.2502441 4.0541153 -2.2637634 9.055115 -2.2637634c5.001007 0 9.055122 1.0135193 9.055122 2.2637634l0 0c0 1.2502441 -4.0541153 2.263794 -9.055122 2.263794c-5.0009995 0 -9.055115 -1.0135498 -9.055115 -2.263794z"/><path id="path613" fill="#000" fill-opacity="0" fill-rule="evenodd" d="m78.220474 498.03018l0 0c0 1.2502441 -4.0541153 2.263794 -9.055122 2.263794c-5.0009995 0 -9.055115 -1.0135498 -9.055115 -2.263794l0 0c0 -1.2502441 4.0541153 -2.2637634 9.055115 -2.2637634c5.001007 0 9.055122 1.0135193 9.055122 2.2637634l0 16.480316c0 1.2502441 -4.0541153 2.263794 -9.055122 2.263794c-5.0009995 0 -9.055115 -1.0135498 -9.055115 -2.263794l0 -16.480316"/><path id="path615" fill-rule="evenodd" stroke="#000" stroke-linecap="butt" stroke-linejoin="round" stroke-width="1" d="m78.220474 498.03018l0 0c0 1.2502441 -4.0541153 2.263794 -9.055122 2.263794c-5.0009995 0 -9.055115 -1.0135498 -9.055115 -2.263794l0 0c0 -1.2502441 4.0541153 -2.2637634 9.055115 -2.2637634c5.001007 0 9.055122 1.0135193 9.055122 2.2637634l0 16.480316c0 1.2502441 -4.0541153 2.263794 -9.055122 2.263794c-5.0009995 0 -9.055115 -1.0135498 -9.055115 -2.263794l0 -16.480316"/><path id="path617" fill="#000" fill-opacity="0" fill-rule="evenodd" d="m115.11942 101.51181l222.86615 66.48819"/><path id="path619" fill-rule="evenodd" stroke="#000" stroke-linecap="butt" stroke-linejoin="round" stroke-width="1" d="m115.11942 101.51181l217.11655 64.7729"/><path id="path621" fill="#000" fill-rule="evenodd" stroke="#000" stroke-linecap="butt" stroke-width="1" d="m331.76376 167.86751l4.820923 -0.28544617l-3.8765259 -2.8801422z"/><path id="path623" fill="#000" fill-opacity="0" fill-rule="evenodd" d="m256.11942 101.51181l103.87402 67.49606"/><path id="path625" fill-rule="evenodd" stroke="#000" stroke-linecap="butt" stroke-linejoin="round" stroke-width="1" d="m256.11942 101.51181l98.842865 64.22688"/><path id="path627" fill="#000" fill-rule="evenodd" stroke="#000" stroke-linecap="butt" stroke-width="1" d="m354.06232 167.12372l4.7052917 1.087616l-2.905365 -3.8576508z"/><path id="path629" fill="#000" fill-opacity="0" fill-rule="evenodd" d="m398.13516 101.51181l-0.50393677 66.01575"/><path id="path631" fill-rule="evenodd" stroke="#000" stroke-linecap="butt" stroke-linejoin="round" stroke-width="1" d="m398.13516 101.51181l-0.45812988 60.01593"/><path id="path633" fill="#000" fill-rule="evenodd" stroke="#000" stroke-linecap="butt" stroke-width="1" d="m396.02536 161.51512l1.6170349 4.550583l1.6863098 -4.52536z"/><path id="path635" fill="#000" fill-opacity="0" fill-rule="evenodd" d="m539.1352 101.51181l-108.12601 66.48819"/><path id="path637" fill-rule="evenodd" stroke="#000" stroke-linecap="butt" stroke-linejoin="round" stroke-width="1" d="m539.1352 101.51181l-103.014984 63.345352"/><path id="path639" fill="#000" fill-rule="evenodd" stroke="#000" stroke-linecap="butt" stroke-width="1" d="m435.25504 163.45015l-3.0005493 3.7841034l4.7309265 -0.9700928z"/><path id="path641" fill="#000" fill-opacity="0" fill-rule="evenodd" d="m680.1352 101.51181l-215.14963 66.48819"/><path id="path643" fill-rule="evenodd" stroke="#000" stroke-linecap="butt" stroke-linejoin="round" stroke-width="1" d="m680.1352 101.51181l-209.41711 64.71666"/><path id="path645" fill="#000" fill-rule="evenodd" stroke="#000" stroke-linecap="butt" stroke-width="1" d="m470.23038 164.65038l-3.8480835 2.917984l4.823456 0.23820496z"/><path id="path647" fill="#000" fill-opacity="0" fill-rule="evenodd" d="m49.124672 284.97638l-17.124899 0l0 143.0231l107.01466 0l0 22.016266"/><path id="path649" fill-rule="evenodd" stroke="#000" stroke-dasharray="8 3" stroke-linecap="butt" stroke-linejoin="round" stroke-width="1" d="m43.124672 284.97638l-11.124901 0l0 143.02313l107.01466 0l0 16.016235"/><path id="path651" fill="#000" fill-rule="evenodd" stroke="#000" stroke-linecap="butt" stroke-width="1" d="m43.124672 286.6281l4.5380974 -1.6517334l-4.5380974 -1.6517334z"/><path id="path653" fill="#000" fill-rule="evenodd" stroke="#000" stroke-linecap="butt" stroke-width="1" d="m137.3627 444.01575l1.6517334 4.538086l1.6517334 -4.538086z"/><path id="path655" fill="#000" fill-opacity="0" fill-rule="evenodd" d="m750.8753 284.97638l16.124878 0l0 143.02399l-103.99884 0l0 21.007507"/><path id="path657" fill-rule="evenodd" stroke="#000" stroke-dasharray="8 3" stroke-linecap="butt" stroke-linejoin="round" stroke-width="1" d="m756.8753 284.97638l10.124939 0l0 143.02399l-103.9989 0l0 15.007507"/><path id="path659" fill="#000" fill-rule="evenodd" stroke="#000" stroke-linecap="butt" stroke-width="1" d="m756.8753 283.32465l-4.538086 1.6517334l4.538086 1.6517334z"/><path id="path661" fill="#000" fill-rule="evenodd" stroke="#000" stroke-linecap="butt" stroke-width="1" d="m661.3496 443.00787l1.6517334 4.538086l1.6516724 -4.538086z"/><path id="path663" fill="#000" fill-opacity="0" fill-rule="evenodd" d="m307.6286 284.97638l-15.628479 0l0 142.02399l108.00644 0l0 22.290985"/><path id="path665" fill-rule="evenodd" stroke="#000" stroke-dasharray="8 3" stroke-linecap="butt" stroke-linejoin="round" stroke-width="1" d="m301.6286 284.97638l-9.6285095 0l0 142.02399l108.00647 0l0 16.290985"/><path id="path667" fill="#000" fill-rule="evenodd" stroke="#000" stroke-linecap="butt" stroke-width="1" d="m301.6286 286.6281l4.5381165 -1.6517334l-4.5381165 -1.6517334z"/><path id="path669" fill="#000" fill-rule="evenodd" stroke="#000" stroke-linecap="butt" stroke-width="1" d="m398.35483 443.29135l1.6517334 4.538086l1.6517334 -4.538086z"/></g><text style="font-size:18.6667px;fill:#000" id="text837" x="24.271" y="32.088" xml:space="preserve"><tspan id="tspan835" x="24.271" y="32.088" style="font-size:18.6667px">kubeadm 高可用拓扑 - 外部 etcd</tspan></text><text style="font-size:18.6667px;fill:#000" id="text837-6" x="74.958" y="87.24" xml:space="preserve"><tspan id="tspan835-9" x="74.958" y="87.24" style="font-size:18.6667px">工作节点</tspan></text><text style="font-size:18.6667px;fill:#000" id="text837-6-8" x="346.957" y="195.109" xml:space="preserve"><tspan id="tspan835-9-58" x="346.957" y="195.109" style="font-size:18.6667px">负载均衡器</tspan></text><text style="font-size:18.6667px;fill:#000" id="text837-6-8-6" x="34.108" y="181.557" xml:space="preserve"><tspan id="tspan835-9-58-0" x="34.108" y="181.557" style="font-size:18.6667px">API 服务器</tspan></text><text style="font-size:18.6667px;fill:#000" id="text837-6-8-6-4" x="92.397" y="292.875" xml:space="preserve"><tspan id="tspan835-9-58-0-0" x="92.397" y="292.875" style="font-size:18.6667px">API 服务器</tspan></text><text style="font-size:18.6667px;fill:#000" id="text837-6-8-6-4-3" x="81.611" y="334.223" xml:space="preserve"><tspan id="tspan835-9-58-0-0-8" x="81.611" y="334.223" style="font-size:18.6667px">控制器管理器</tspan></text><text style="font-size:18.6667px;fill:#000" id="text837-6-8-6-4-3-8" x="105.111" y="373.956" xml:space="preserve"><tspan id="tspan835-9-58-0-0-8-6" x="105.111" y="373.956" style="font-size:18.6667px">调度器</tspan></text><text style="font-size:18.6667px;fill:#000" id="text837-6-8-6-4-3-8-4" x="101.177" y="512.125" xml:space="preserve"><tspan id="tspan835-9-58-0-0-8-6-88" x="101.177" y="512.125" style="font-size:18.6667px">etcd 主机</tspan></text><text style="font-size:16px;fill:#000" id="text837-6-8-6-4-3-8-4-8" x="29.795" y="254.352" xml:space="preserve"><tspan id="tspan835-9-58-0-0-8-6-88-4" x="29.795" y="254.352" style="font-size:16px">控制平面节点</tspan></text><text style="font-size:16px;fill:#000" id="text837-6-8-6-4-3-8-4-8-5" x="345.843" y="473.546" xml:space="preserve"><tspan id="tspan835-9-58-0-0-8-6-88-4-3" x="345.843" y="473.546" style="font-size:16px">外部 etcd 集群</tspan></text><text style="font-size:16px;fill:#000" id="text837-6-8-6-4-3-8-4-8-0" x="290.114" y="254.223" xml:space="preserve"><tspan id="tspan835-9-58-0-0-8-6-88-4-5" x="290.114" y="254.223" style="font-size:16px">控制平面节点</tspan></text><text style="font-size:16px;fill:#000" id="text837-6-8-6-4-3-8-4-8-6" x="551.683" y="255.122" xml:space="preserve"><tspan id="tspan835-9-58-0-0-8-6-88-4-8" x="551.683" y="255.122" style="font-size:16px">控制平面节点</tspan></text><text style="font-size:18.6667px;fill:#000" id="text837-6-8-6-4-3-8-4-0" x="356.083" y="512.326" xml:space="preserve"><tspan id="tspan835-9-58-0-0-8-6-88-6" x="356.083" y="512.326" style="font-size:18.6667px">etcd 主机</tspan></text><text style="font-size:18.6667px;fill:#000" id="text837-6-8-6-4-3-8-4-4" x="620.349" y="512.326" xml:space="preserve"><tspan id="tspan835-9-58-0-0-8-6-88-7" x="620.349" y="512.326" style="font-size:18.6667px">etcd 主机</tspan></text><text style="font-size:18.6667px;fill:#000" id="text837-6-8-6-4-3-8-6" x="373.533" y="376.397" xml:space="preserve"><tspan id="tspan835-9-58-0-0-8-6-8" x="373.533" y="376.397" style="font-size:18.6667px">调度器</tspan></text><text style="font-size:18.6667px;fill:#000" id="text837-6-8-6-4-3-8-9" x="637.799" y="376.397" xml:space="preserve"><tspan id="tspan835-9-58-0-0-8-6-1" x="637.799" y="376.397" style="font-size:18.6667px">调度器</tspan></text><text style="font-size:18.6667px;fill:#000" id="text837-6-8-6-4-3-9" x="341.512" y="338.001" xml:space="preserve"><tspan id="tspan835-9-58-0-0-8-2" x="341.512" y="338.001" style="font-size:18.6667px">控制器管理器</tspan></text><text style="font-size:18.6667px;fill:#000" id="text837-6-8-6-4-3-4" x="605.778" y="336.203" xml:space="preserve"><tspan id="tspan835-9-58-0-0-8-5" x="605.778" y="336.203" style="font-size:18.6667px">控制器管理器</tspan></text><text style="font-size:18.6667px;fill:#000" id="text837-6-8-6-4-4" x="353.068" y="295.572" xml:space="preserve"><tspan id="tspan835-9-58-0-0-6" x="353.068" y="295.572" style="font-size:18.6667px">API 服务器</tspan></text><text style="font-size:18.6667px;fill:#000" id="text837-6-8-6-4-46" x="613.739" y="294.673" xml:space="preserve"><tspan id="tspan835-9-58-0-0-4" x="613.739" y="294.673" style="font-size:18.6667px">API 服务器</tspan></text><text style="font-size:18.6667px;fill:#000" id="text837-6-9" x="219.318" y="86.346" xml:space="preserve"><tspan id="tspan835-9-1" x="219.318" y="86.346" style="font-size:18.6667px">工作节点</tspan></text><text style="font-size:18.6667px;fill:#000" id="text837-6-5" x="357.743" y="85.447" xml:space="preserve"><tspan id="tspan835-9-5" x="357.743" y="85.447" style="font-size:18.6667px">工作节点</tspan></text><text style="font-size:18.6667px;fill:#000" id="text837-6-5-2" x="497.966" y="86.346" xml:space="preserve"><tspan id="tspan835-9-5-0" x="497.966" y="86.346" style="font-size:18.6667px">工作节点</tspan></text><text style="font-size:18.6667px;fill:#000" id="text837-6-5-7" x="644.481" y="86.346" xml:space="preserve"><tspan id="tspan835-9-5-4" x="644.481" y="86.346" style="font-size:18.6667px">工作节点</tspan></text></svg>